<?xml version="1.0" encoding="UTF-8"?>
<svg width="14px" height="25px" viewBox="0 0 14 25" version="1.1" xmlns="http://www.w3.org/2000/svg" xmlns:xlink="http://www.w3.org/1999/xlink">
    <!-- Generator: Sketch 44 (41411) - http://www.bohemiancoding.com/sketch -->
    <title>Fill 1 Copy</title>
    <desc>Created with Sketch.</desc>
    <defs></defs>
    <g id="menu-desktop" stroke="none" stroke-width="1" fill="none" fill-rule="evenodd">
        <g id="menu7_services-question" transform="translate(-324.000000, -812.000000)" fill="#000000">
            <g id="menu+buttons" transform="translate(30.000000, 779.000000)">
                <g id="Group-11" transform="translate(255.000000, 15.000000)">
                    <g id="Group-10" transform="translate(39.000000, 18.000000)">
                        <path d="M13.0311032,0.00520817058 L9.78302761,0 C6.13418331,0 3.77644449,2.41476829 3.77644449,6.1524119 L3.77644449,8.98930242 L0.510661125,8.98930242 C0.228638688,8.98930242 0,9.2176807 0,9.49918232 L0,13.6092101 C0,13.8909722 0.228899097,14.11909 0.510661125,14.11909 L3.77618408,14.11909 L3.77618408,24.4901201 C3.77618408,24.7718821 4.00482277,25 4.2868452,25 L8.54738914,25 C8.82967199,25 9.05805027,24.7716217 9.05805027,24.4901201 L9.05805027,14.11909 L12.8764205,14.11909 C13.158443,14.11909 13.3870817,13.8909722 13.3870817,13.6092101 L13.3886441,9.49918232 C13.3886441,9.36403029 13.3347395,9.23460725 13.2389092,9.13877691 C13.1430789,9.04294657 13.013135,8.98930242 12.8777226,8.98930242 L9.05857109,8.98930242 L9.05857109,6.58442965 C9.05857109,5.4287366 9.33434372,4.84203619 10.8423695,4.84203619 L13.0305824,4.84125496 C13.3126048,4.84125496 13.5409831,4.61287668 13.5409831,4.33137506 L13.5409831,0.51508807 C13.5409831,0.233846859 13.3128652,0.00572898764 13.0311032,0.00520817058" id="Fill-1-Copy"></path>
                    </g>
                </g>
            </g>
        </g>
    </g>
</svg>