<?xml version="1.0" encoding="UTF-8"?>
<svg width="24px" height="16px" viewBox="0 0 24 16" version="1.1" xmlns="http://www.w3.org/2000/svg" xmlns:xlink="http://www.w3.org/1999/xlink">
    <!-- Generator: Sketch 44 (41411) - http://www.bohemiancoding.com/sketch -->
    <title>Page 1 Copy 2</title>
    <desc>Created with Sketch.</desc>
    <defs></defs>
    <g id="menu-desktop" stroke="none" stroke-width="1" fill="none" fill-rule="evenodd">
        <g id="menu7_services-question" transform="translate(-951.000000, -816.000000)" fill="#000000">
            <g id="menu+buttons" transform="translate(30.000000, 779.000000)">
                <g id="Group-11" transform="translate(255.000000, 15.000000)">
                    <g id="Group-6" transform="translate(666.000000, 21.000000)">
                        <path d="M2,15 L2,4.179 L11.47,10.848 C11.632,10.949 11.816,11 12,11 C12.184,11 12.368,10.949 12.53,10.848 L22,4.178 L22.001,15 L2,15 Z M20.113,3 L12,8.82 L3.887,3 L20.113,3 Z M22,1 L2,1 L0,1 L0,3 L0,15 L0,17 L2,17 L22,17 L24,17 L24,15 L24,3 L24,1 L22,1 Z" id="Page-1-Copy-2"></path>
                    </g>
                </g>
            </g>
        </g>
    </g>
</svg>