<svg xmlns="http://www.w3.org/2000/svg" width="82" height="82" viewBox="0 0 82 82"><title>Fill 33</title><path d="M0 45h50v5H0zM0 35h50v5H0zM37.51 12.51h5v5h-5z"/><path d="M0 0v30h50V0H0zm45 25H5V5h40v20z"/><path d="M7.51 12.51h5v5h-5zM25 22.51c4.143.004 7.504-3.35 7.508-7.492.005-4.142-3.35-7.504-7.492-7.508-4.14-.004-7.502 3.35-7.508 7.49.003 4.14 3.353 7.498 7.492 7.51zm-2.506-7.5c.006-1.38 1.126-2.497 2.506-2.5 1.384 0 2.505 1.123 2.504 2.506 0 1.383-1.122 2.505-2.506 2.504-1.383 0-2.504-1.123-2.504-2.506v-.004z"/></svg>