<svg xmlns="http://www.w3.org/2000/svg" width="82" height="82" viewBox="-16 -18.5 82 82"><title>Fill 32</title><path d="M21.493-1.01c1.386-.002 2.51 1.12 2.513 2.507s-1.12 2.51-2.507 2.513c-1.387.002-2.512-1.12-2.514-2.507V1.5c.002-1.384 1.12-2.506 2.505-2.51h.003zm0 10c4.142-.004 7.497-3.365 7.493-7.507S25.62-6.014 21.48-6.01c-4.143.004-7.498 3.365-7.494 7.507V1.5c.012 4.137 3.368 7.486 7.505 7.49h.003zM18.84 21.5c-.154-1.383-.436-2.75-.84-4.08 1.07-.59 2.27-.906 3.493-.92 3.176.004 6.005 2.007 7.066 5h-9.72zm-29.677 0c1-7.08 6.146-12.51 12.332-12.51s11.332 5.42 12.332 12.51H-10.84h.003zm32.33-10c-1.91.012-3.79.467-5.493 1.33C12.854 7.5 7.52 3.99 1.5 3.99c-9.652 0-17.5 8.98-17.5 20v2.51h49.986v-2.51c-.01-6.896-5.6-12.482-12.495-12.49h.003zm-20-25c2.76 0 5 2.24 5 5s-2.24 5-5 5-5-2.24-5-5 2.24-5 5-5zm0 15c5.523 0 10-4.477 10-10s-4.477-10-10-10-10 4.477-10 10 4.477 10 10 10z"/></svg>