<svg xmlns="http://www.w3.org/2000/svg" width="82" height="82" viewBox="-10 -5.5 82 82"><title>Icons/Money</title><path d="M29.068 25.457c-5.546-2.59-10.42-2.88-16.15.58-.903.55-1.19 1.726-.64 2.63.02.03.038.06.06.09.323.56.904.923 1.55.97.357-.007.7-.14.967-.38 4.636-2.5 7.583-2.36 12.275-.39.967.535 2.184.186 2.72-.78.534-.967.185-2.185-.782-2.72zm9.362 8.47c1.074-.004 1.95.863 1.953 1.937.004 1.074-.863 1.948-1.937 1.953-1.074.004-1.95-.863-1.953-1.937v-.003c-.004-1.073.86-1.946 1.934-1.95h.003zm4.563 13.55v6h-10l-.077 5.42c0 .55-.228.09-.8.59-.438.38-1.167 0-1.59 0-.968 0-1.59.39-1.59-.59l.057-5.42h-16l.05 5.42c0 .39-.49.9-1.588.59-.388.39-.214 0-.8 0-.97 0-1.59.39-1.59-.59l-.072-5.42h-10s-.05-3.96-.05-11.24c0-13.81 9.3-22.76 23.05-22.76 4.65 0 9.075.45 13.144 3.36-.194.2-.388.39-.58.59-1.52 1.414-2.596 3.238-3.1 5.25l3.873.78c.32-1.207.995-2.29 1.938-3.11 1.978-1.722 4.39-2.867 6.975-3.31 0 2.53-.387 6.03-2.13 8.36l-.776 1.17.775 1.17c1.432 2.482 2.168 5.304 2.13 8.17l-.25 2.57h3v3h-4zm9-7.71h-3.875c-.204-2.56-.86-5.06-1.938-7.39 2.713-4.87 1.938-11.68 1.938-12.06l-.194-1.95-1.937.19c-2.473.29-4.89.948-7.17 1.95-4.95-3.812-10.996-5.927-17.243-6.03-14.53 0-25.38 9.53-27.318 23.34H-8.07c-1.074.008-1.938.885-1.93 1.96.007 1.062.867 1.922 1.93 1.93h1.938c0 .2.1.34.1.53v11.11l.025 5.13h10v1c0 3.11 4.213 4.98 7.313 4.98 1.55 0 2.906.21 4.068-.96 1.162-1.17 2.62-3.46 2.62-5.02h6c0 3.11 3.587 5.98 6.686 5.98 3.1 0 7.313-1.87 7.313-4.98v-1h10v-6h4v-12.71z"/><path fill="#FEEB34" d="M32.335 23.06c2.896-3.048 4.673-7.17 4.673-11.707 0-9.39-7.61-17-17-17s-17 7.61-17 17c0 4.897 2.07 9.31 5.384 12.412 3.703-2.17 8.015-3.412 12.616-3.412 4.078 0 7.927.976 11.327 2.707z"/></svg>