<?xml version="1.0" encoding="UTF-8"?>
<svg width="63px" height="75px" viewBox="0 0 63 75" version="1.1" xmlns="http://www.w3.org/2000/svg" xmlns:xlink="http://www.w3.org/1999/xlink">
    <!-- Generator: Sketch 43.1 (39012) - http://www.bohemiancoding.com/sketch -->
    <title>Page 1</title>
    <desc>Created with Sketch.</desc>
    <defs></defs>
    <g id="Page-1" stroke="none" stroke-width="1" fill="none" fill-rule="evenodd">
        <g id="Text-Styles-Copy" transform="translate(-298.000000, -804.000000)">
            <g id="Page-1" transform="translate(298.000000, 804.000000)">
                <path d="M31,9.2625 L26.435,9.2625 C26.081,9.2625 25.732,9.5075 25.437,9.7205 L22.75,12.2385 L22.75,10.7625 L22.75,10.4315 L22.75,9.2625 L21.25,9.2625 L18.25,9.2625 L18.25,3.0005 L31,3.0005 L31,9.2625 Z M15.25,0.0005 L15.25,12.2625 L19.75,12.2625 L19.75,15.5575 C19.75,16.1835 19.933,16.7625 20.5,17.0455 C21.173,17.3175 21.666,17.3415 22.162,16.9755 L28.49,12.2625 L34,12.2625 L34,0.0005 L15.25,0.0005 Z" id="Fill-1" fill="#000000"></path>
                <path d="M3,45 L3,37.228 C3,33.366 6.638,30 10.5,30 C14.362,30 18,33.638 18,37.5 L18,45 L3,45 Z M15,63 L12,63 L12,54.75 L9,54.75 L9,63 L6,63 L6,48 L15,48 L15,63 Z M10.5,27 C4.795,27 0,31.524 0,37.228 L0,48 L3,48 L3,66 L18,66 L18,48 L21,48 L21,37.228 C21,31.524 16.205,27 10.5,27 L10.5,27 Z" id="Fill-3" fill="#000000"></path>
                <path d="M10.3465,14.3386 C12.3895,14.3386 14.0555,16.0036 14.0555,18.0476 C14.0555,20.0906 12.3895,21.7556 10.3465,21.7556 C8.3035,21.7556 6.6375,20.0906 6.6375,18.0476 C6.6375,16.0036 8.3035,14.3386 10.3465,14.3386 M10.4495,24.6916 C14.1745,24.6916 17.1965,21.6576 17.1965,17.9436 C17.1965,14.2306 14.1625,11.1966 10.4495,11.1966 C6.7365,11.1966 3.6915,14.2196 3.6915,17.9436 C3.6915,21.6686 6.7255,24.6916 10.4495,24.6916" id="Fill-5" fill="#000000"></path>
                <path d="M35,45 L35,37.228 C35,33.366 38.638,30 42.5,30 C46.362,30 50,33.638 50,37.5 L50,45 L35,45 Z M47,63 L44,63 L44,54.75 L41,54.75 L41,63 L38,63 L38,48 L47,48 L47,63 Z M42.5,27 C36.795,27 32,31.524 32,37.228 L32,48 L35,48 L35,66 L50,66 L50,48 L53,48 L53,37.228 C53,31.524 48.205,27 42.5,27 L42.5,27 Z" id="Fill-7" fill="#000000"></path>
                <path d="M42.3465,14.3386 C44.3895,14.3386 46.0555,16.0036 46.0555,18.0476 C46.0555,20.0906 44.3895,21.7556 42.3465,21.7556 C40.3035,21.7556 38.6375,20.0906 38.6375,18.0476 C38.6375,16.0036 40.3035,14.3386 42.3465,14.3386 M42.4495,24.6916 C46.1745,24.6916 49.1965,21.6576 49.1965,17.9436 C49.1965,14.2306 46.1625,11.1966 42.4495,11.1966 C38.7365,11.1966 35.6915,14.2196 35.6915,17.9436 C35.6915,21.6686 38.7255,24.6916 42.4495,24.6916" id="Fill-9" fill="#000000"></path>
                <path d="M63,60 C63,68.284 56.284,75 48,75 C39.716,75 33,68.284 33,60 C33,51.716 39.716,45 48,45 C56.284,45 63,51.716 63,60" id="Fill-11" fill="#FFED00"></path>
                <polygon id="Fill-13" fill="#000000" points="44.818 65.3033 53.303 56.8183 51.182 54.6963 42.697 63.1823"></polygon>
                <polygon id="Fill-15" fill="#000000" points="42.6967 56.818 51.1817 65.303 53.3037 63.182 44.8177 54.697"></polygon>
            </g>
        </g>
    </g>
</svg>