<?xml version="1.0" encoding="UTF-8"?>
<svg width="20px" height="20px" viewBox="0 0 20 20" version="1.1" xmlns="http://www.w3.org/2000/svg" xmlns:xlink="http://www.w3.org/1999/xlink">
    <!-- Generator: Sketch 43.1 (39012) - http://www.bohemiancoding.com/sketch -->
    <title>Page 1</title>
    <desc>Created with Sketch.</desc>
    <defs></defs>
    <g id="Page-1" stroke="none" stroke-width="1" fill="none" fill-rule="evenodd">
        <g id="Text-Styles-Copy" transform="translate(-546.000000, -397.000000)" fill="#000000">
            <path d="M562,415 C560.896,415 560,414.104 560,413 C560,411.895 560.896,411 562,411 C563.104,411 564,411.895 564,413 C564,414.104 563.104,415 562,415 M550,409 C548.896,409 548,408.104 548,407 C548,405.895 548.896,405 550,405 C551.104,405 552,405.895 552,407 C552,408.104 551.104,409 550,409 M562,399 C563.104,399 564,399.895 564,401 C564,402.104 563.104,403 562,403 C560.896,403 560,402.104 560,401 C560,399.895 560.896,399 562,399 M562,409 C560.8,409 559.734,409.541 559,410.381 L553.908,407.836 C553.967,407.567 554,407.288 554,407 C554,406.712 553.967,406.434 553.908,406.163 L559,403.618 C559.734,404.458 560.8,405 562,405 C564.205,405 566,403.205 566,401 C566,398.794 564.205,397 562,397 C559.795,397 558,398.794 558,401 C558,401.287 558.033,401.566 558.092,401.836 L553,404.381 C552.266,403.542 551.2,403 550,403 C547.795,403 546,404.794 546,407 C546,409.205 547.795,411 550,411 C551.2,411 552.266,410.457 553,409.617 L558.092,412.163 C558.033,412.434 558,412.713 558,413 C558,415.205 559.795,417 562,417 C564.205,417 566,415.205 566,413 C566,410.794 564.205,409 562,409" id="Page-1"></path>
        </g>
    </g>
</svg>