<?xml version="1.0" encoding="UTF-8"?>
<svg width="122px" height="33px" viewBox="0 0 122 33" version="1.1" xmlns="http://www.w3.org/2000/svg" xmlns:xlink="http://www.w3.org/1999/xlink">
    <!-- Generator: Sketch 43.1 (39012) - http://www.bohemiancoding.com/sketch -->
    <title>app-store</title>
    <desc>Created with Sketch.</desc>
    <defs>
        <polygon id="path-1" points="61 33 122 33 122 0 61 0 0 0 0 33"></polygon>
    </defs>
    <g id="menu-desktop" stroke="none" stroke-width="1" fill="none" fill-rule="evenodd">
        <g id="menu7_services" transform="translate(-234.000000, -660.000000)">
            <g id="Group-4" transform="translate(215.000000, 646.000000)">
                <g id="Group-7" transform="translate(19.000000, 14.000000)">
                    <g id="Page-1">
                        <mask id="mask-2" fill="white">
                            <use xlink:href="#path-1"></use>
                        </mask>
                        <g id="Clip-2"></g>
                        <path d="M36.7527391,7.21742048 C35.9187234,7.21742048 35.3435401,6.7943062 35.2860218,6.13340869 L34.3139621,6.13340869 C34.3726308,7.31591403 35.3446905,8.10211398 36.7573405,8.10211398 C38.1159233,8.10211398 39.1466517,7.24539498 39.1466517,6.11475902 C39.197843,5.26853046 38.5760699,4.53419988 37.7426294,4.45727001 L37.7426294,4.41997068 C38.4541311,4.2538721 38.9562661,3.60987585 38.9505142,2.87030005 C38.9505142,1.80843474 38.0555291,1.06361373 36.777472,1.06361373 C35.4275169,1.06361373 34.5497873,1.80843474 34.4824908,3.00900694 L35.4384454,3.00900694 C35.4395957,2.99443689 35.4413213,2.97986684 35.4430468,2.96529679 C35.5224221,2.31547251 36.1068083,1.85331049 36.7481376,1.93373717 C36.7987537,1.92557795 36.849945,1.92149833 36.9011363,1.92149833 C37.4803459,1.91741872 37.9525713,2.39007117 37.9560224,2.97637003 C37.954872,3.00784134 37.9525713,3.03931265 37.9491202,3.07078396 C37.8772223,3.69671335 37.3187194,4.14488812 36.7009726,4.07203786 L35.8278444,4.07203786 L35.8278444,4.94390972 L36.7251303,4.94390972 C37.593657,4.94390972 38.1113219,5.36236158 38.1113219,6.06522085 C38.1095963,6.10135457 38.1067204,6.1374883 38.102119,6.17303922 C38.0141159,6.83918196 37.4095983,7.3065892 36.7527391,7.21742048 L36.7527391,7.21742048 Z M48.2558287,3.68622291 L50.5145733,3.68622291 L50.5145733,2.88545291 L47.2883705,2.88545291 L47.2883705,7.94067782 L48.2558287,7.94067782 L48.2558287,3.68622291 Z M61.4804417,8.16913622 L63.3118251,2.8825389 L62.2856982,2.8825389 L61.0306484,7.01518817 L61.0082163,7.01518817 L59.7525913,2.8825389 L58.7040322,2.8825389 L60.476747,7.95291666 L60.4002476,8.21342917 C60.3404285,8.65694153 59.9544806,8.97923105 59.5138902,8.95358776 C59.4097821,8.95533617 59.3056739,8.94775974 59.2032913,8.93027568 L59.2032913,9.74969535 C59.3350082,9.76543101 59.4673004,9.77359024 59.5995925,9.77475584 C60.5986858,9.77475584 61.0617083,9.38369567 61.4804417,8.16913622 L61.4804417,8.16913622 Z M44.14787,5.64502057 L42.9601166,5.72894407 C42.2940544,5.77090582 41.9477941,6.02675591 41.9477941,6.47376508 C41.985181,6.91086661 42.3648019,7.23490454 42.7961894,7.19702241 C42.8226478,7.1946912 42.8491062,7.19119439 42.8749895,7.18594917 C43.5214954,7.24131537 44.0897765,6.75525846 44.1444189,6.10018897 C44.1461444,6.0803737 44.1472948,6.06055843 44.14787,6.04074316 L44.14787,5.64502057 Z M44.14787,4.9374989 L44.14787,4.54643873 C44.1622496,4.05979902 43.783779,3.653586 43.303501,3.63901595 C43.2425316,3.63726754 43.1815621,3.64192996 43.1217431,3.6530032 C42.6564198,3.60696184 42.2284835,3.91468131 42.1180483,4.37509493 L41.2046573,4.37509493 C41.231691,3.4816594 42.0507519,2.82076188 43.1482015,2.82076188 C44.3405564,2.82076188 45.1101515,3.47233456 45.1101515,4.47300567 L45.1101515,7.94009501 L44.1789299,7.94009501 L44.1789299,7.09678046 L44.1564977,7.09678046 C43.8481995,7.66384685 43.2523097,8.00828285 42.6132811,7.98846758 C41.7947953,8.0788019 41.0597112,7.4796814 40.9705578,6.6503541 C40.9648059,6.59790191 40.96193,6.54486693 40.96193,6.49183194 C40.96193,5.60772124 41.6233907,5.09310704 42.82955,5.01675997 L44.14787,4.9374989 Z M75.2002875,7.94009501 L75.2002875,2.88603571 L74.2420322,2.88603571 L71.9067883,6.45977783 L71.8705517,6.45977783 L71.8705517,2.88545291 L70.9122965,2.88545291 L70.9122965,7.937181 L70.9122965,7.93892941 L71.8705517,7.93892941 L74.2057957,4.35120004 L74.2420322,4.35120004 L74.2420322,7.94009501 L75.2002875,7.94009501 Z M78.6329811,7.937181 L79.5969882,7.937181 L79.5969882,3.6827261 L81.1396296,3.6827261 L81.1396296,2.88545291 L77.0897645,2.88545291 L77.0897645,3.6827261 L78.6329811,3.6827261 L78.6329811,7.937181 Z M81.1402048,3.6827261 L81.1396296,3.6827261 L81.1396296,3.68622291 L81.1402048,3.6827261 Z M66.8831379,7.2226657 C66.4137884,7.29260195 65.9662958,7.00003532 65.835154,6.5384561 L64.8728725,6.5384561 C64.9631762,7.45986613 65.7506021,8.03217774 66.8860138,8.03276054 C68.0875716,8.03276054 68.8663697,7.39983752 68.8663697,6.44112816 C68.8801741,5.86706815 68.4683429,5.37343482 67.9075392,5.29184254 L67.9075392,5.25454321 C68.3866669,5.12690956 68.7150965,4.681066 68.6995665,4.17927344 C68.6995665,3.3412041 68.060538,2.78754216 66.8906153,2.78754216 C65.8063949,2.78754216 65.0776377,3.34586652 64.978131,4.23930205 L65.9145293,4.23930205 C66.0284156,3.80161772 66.4511753,3.52187274 66.8923408,3.59239178 C66.9326036,3.58364975 66.9740168,3.57840454 67.01543,3.57665613 C67.4054043,3.56266888 67.7332587,3.87213676 67.7470631,4.26727655 C67.7470631,4.72361055 67.4502686,4.95148615 66.8699087,4.95148615 L66.1681851,4.95148615 L66.1681851,5.70038677 L66.8831379,5.70038677 C67.5630045,5.70038677 67.9000618,5.93817 67.9000618,6.44987019 C67.9000618,6.90620419 67.5359709,7.2226657 66.8831379,7.2226657 L66.8831379,7.2226657 Z M53.4842443,5.41248256 C53.4888458,6.44579058 54.0111122,7.13407979 54.7893351,7.13407979 C55.5813624,7.13407979 56.1030536,6.45919503 56.1030536,5.41248256 C56.1030536,4.36984971 55.5813624,3.69088533 54.7893351,3.69088533 C54.0157136,3.69088533 53.4888458,4.38441976 53.4842443,5.41248256 L53.4842443,5.41248256 Z M53.4934473,9.5911732 L52.5156357,9.5911732 L52.5156357,2.88545291 L53.4560603,2.88545291 L53.4560603,3.72293944 L53.4790677,3.72293944 C53.7931177,3.15529025 54.393609,2.81260265 55.0355135,2.83416633 C56.283086,2.83416633 57.1021469,3.84416227 57.1021469,5.41248256 C57.1021469,6.97614044 56.2876874,7.99079879 55.059096,7.99079879 C54.4194923,8.0228529 53.8178506,7.68133091 53.5112779,7.11135051 L53.4934473,7.11135051 L53.4934473,9.5911732 Z M94.594316,7.19760521 C94.9911924,7.2786147 95.3777156,7.01810218 95.4570908,6.61655158 C95.4680193,6.56118538 95.473196,6.50465359 95.4714704,6.44870459 C95.4714704,5.9370044 95.1384393,5.68523392 94.4729523,5.68523392 L93.4295699,5.68523392 L93.4295699,7.19760521 L94.594316,7.19760521 Z M93.4295699,4.9660562 L94.4073814,4.9660562 C94.9825647,4.9660562 95.2667052,4.74284301 95.2667052,4.29117143 C95.28166,3.93333098 95.0078727,3.63085672 94.6547102,3.61570387 C94.6063948,3.61337266 94.5580794,3.61686947 94.5109144,3.6256115 L93.4312955,3.6256115 L93.4295699,3.6256115 L93.4295699,4.9660562 Z M94.7208563,7.93951221 L92.4707395,7.93951221 L92.4707395,2.88545291 L94.6984241,2.88545291 C95.6434502,2.88545291 96.2192086,3.37384102 96.2192086,4.1676174 C96.2284116,4.68339721 95.884452,5.13681719 95.3909448,5.26153683 L95.3909448,5.29883616 C95.9925864,5.35303675 96.4492819,5.87056496 96.4349023,6.48250711 C96.4349023,7.37594264 95.7780431,7.93951221 94.7208563,7.93951221 L94.7208563,7.93951221 Z M83.7233528,4.94624093 L83.7233528,4.95148615 L86.2029677,4.95148615 C86.2489824,4.27718418 85.7462722,3.69263374 85.0807852,3.64659237 C85.0497253,3.64426117 85.0192406,3.64367836 84.9881807,3.64367836 C84.2841564,3.64950638 83.7176009,4.23230843 83.7233528,4.94624093 L83.7233528,4.94624093 Z M85.0324698,7.99662681 C83.6152183,7.99662681 82.7317369,7.00994296 82.7317369,5.42763541 C82.7317369,3.84532787 83.6226957,2.81668227 84.9904814,2.81668227 C86.3318087,2.81668227 87.1761777,3.78005404 87.1761777,5.311075 L87.1761777,5.66483584 L83.7176009,5.66483584 L83.7176009,5.72311605 C83.6474286,6.450453 84.1725709,7.09794606 84.8909747,7.16904791 C84.9433164,7.17429313 84.9968084,7.17604154 85.0497253,7.17487593 C85.5489844,7.2215001 86.0183339,6.92718507 86.2000918,6.45336701 L87.1313135,6.45336701 L87.1290127,6.45628102 C86.9081424,7.42839482 86.0131572,8.08579552 85.0324698,7.99662681 L85.0324698,7.99662681 Z M119.729824,22.0205923 C119.760308,21.3707681 119.600407,20.7267718 119.269677,20.1690303 C118.868774,19.5046359 118.138867,19.1182382 117.371572,19.1648623 C116.618082,19.1514579 115.908306,19.5197888 115.478644,20.1468838 C115.07314,20.6912209 114.828687,21.3410452 114.77462,22.0205923 L119.729824,22.0205923 Z M121.911494,23.7392756 L114.77577,23.7392756 C114.744135,24.6729244 115.123756,25.5727708 115.8111,26.1957862 C116.474286,26.7220564 117.301975,26.991311 118.144043,26.9534288 C119.129332,26.9662505 120.108294,26.7925755 121.030313,26.4399802 L121.403032,28.1132049 C120.265319,28.5846917 119.04363,28.8125673 117.815039,28.7834272 C116.363276,28.8650195 114.944874,28.3259276 113.903793,27.2978648 C112.921955,26.216767 112.410042,24.7819084 112.482515,23.3149957 C112.430173,21.8375925 112.898947,20.3893294 113.805436,19.230719 C114.709049,18.0808505 116.099267,17.4351059 117.548729,17.4916377 C118.936071,17.4135422 120.263594,18.0721085 121.052745,19.230719 C121.707304,20.2430461 122.037459,21.4354591 121.996621,22.6453561 C122.002948,23.0119386 121.974764,23.3785211 121.911494,23.7392756 L121.911494,23.7392756 Z M67.0022008,25.8804903 C67.5348205,25.0616534 67.7965289,24.0924536 67.749939,23.1127634 C67.7884763,22.1901877 67.5428731,21.2781025 67.0476403,20.502393 C66.5817419,19.8123554 65.8017934,19.4084736 64.9769806,19.4300373 C64.3920193,19.4300373 63.826039,19.6392632 63.3791216,20.0221641 C62.9022947,20.4167211 62.5727147,20.964555 62.4444488,21.5747488 C62.3794531,21.8142804 62.3426414,22.0608057 62.3345888,22.3090793 L62.3345888,24.1157657 C62.3144574,24.8489306 62.5698388,25.5628631 63.047816,26.1136111 C63.5177407,26.6538686 64.2010584,26.9534288 64.9114097,26.9295339 C65.7390984,26.9633365 66.5270995,26.5681967 67.0022008,25.8804903 L67.0022008,25.8804903 Z M70.173186,23.0247603 C70.2600387,24.6228035 69.7297197,26.1917066 68.6943899,27.400438 C67.8563479,28.3340869 66.6611171,28.8545291 65.4158454,28.8277202 C64.1993329,28.9279621 63.0282598,28.3346697 62.3771524,27.28854 L62.3334385,27.28854 L62.3334385,33 L59.9544806,33 L59.9544806,21.3054942 C59.9533302,20.146301 59.9239959,18.9562192 59.8664775,17.7346661 L61.958419,17.7346661 L62.0907111,19.4533493 L62.1344251,19.4533493 C62.3581713,19.1071649 62.6296578,18.7953658 62.9414071,18.5278597 C64.7250504,16.9962559 67.3962013,17.2206347 68.9077829,19.0279039 C69.7912643,20.1620366 70.2404824,21.5817424 70.173186,23.0247603 L70.173186,23.0247603 Z M80.2176109,19.9248362 C79.4416887,19.6567473 78.7129316,19.2645215 78.058373,18.7638945 C77.6172075,18.4072197 77.364702,17.8628826 77.3762057,17.2911538 C77.3693035,16.7712944 77.5861476,16.2741642 77.97037,15.9297282 C78.5254218,15.4838846 79.2231191,15.2618371 79.9300193,15.3049644 C80.9193345,15.288646 81.897146,15.5264292 82.7708493,15.9973332 L83.3650136,14.0327076 C82.3158794,13.5227558 81.1603362,13.2779789 79.9973157,13.3187751 C78.6835972,13.25117 77.3911605,13.6725359 76.363308,14.5036116 C75.471774,15.2507638 74.9679135,16.3709093 74.9972478,17.5429243 C74.9972478,19.4358653 76.2965868,20.8736379 78.8952646,21.8556594 C79.6499051,22.0969394 80.346452,22.4938276 80.9417666,23.0212634 C81.3489963,23.4268937 81.5721674,23.985218 81.5589382,24.5633576 C81.5813704,25.2003603 81.3035569,25.810554 80.8112,26.2068594 C80.2038065,26.649789 79.4641209,26.8665913 78.7169578,26.8217156 C77.5056219,26.8316232 76.3149926,26.4988432 75.2796628,25.8612578 L74.7280621,27.8701764 C75.8968344,28.5462268 77.2312595,28.8714303 78.5754628,28.8067393 C80.0387289,28.8976564 81.4824389,28.4273352 82.6195761,27.4896067 C83.4944298,26.6975787 83.9775837,25.5529555 83.9378961,24.365205 C83.9678056,23.4117408 83.6462782,22.4804231 83.0360088,21.7542518 C82.2480077,20.9325009 81.2834255,20.3065715 80.2176109,19.9248362 L80.2176109,19.9248362 Z M101.162333,23.1477315 L101.161183,23.1471487 C101.186491,22.2449711 100.965046,21.353284 100.520429,20.5711637 C100.112049,19.760486 99.2832097,19.2569451 98.3853487,19.2732635 C97.4731081,19.2470374 96.6264384,19.7511612 96.204829,20.5711637 C95.7579117,21.3678541 95.5370413,22.2741112 95.5663757,23.190276 C95.5404924,24.091288 95.7613628,24.9823923 96.204829,25.7639299 C96.6258632,26.5757731 97.4616044,27.0787313 98.3669428,27.064744 C99.268255,27.070572 100.094793,26.5588718 100.501448,25.7441146 C100.956418,24.9579146 101.185341,24.0586511 101.162333,23.1477315 L101.162333,23.1477315 Z M102.264384,19.0990057 C103.201358,20.1987532 103.690264,21.6184589 103.630445,23.0702188 L103.629294,23.069636 C103.686813,24.5691857 103.183527,26.0355156 102.220671,27.1754764 C101.217551,28.2845487 99.7818936,28.8889144 98.298496,28.8259718 C96.8772183,28.89008 95.5008048,28.3096092 94.544275,27.2424986 C93.5946475,26.1392544 93.0948133,24.7113894 93.1454294,23.2485562 C93.0850352,21.7356021 93.6015497,20.2570334 94.587989,19.1199866 C95.5876574,18.0313124 97.0100856,17.4432651 98.4762277,17.5132013 C99.9072836,17.4543383 101.29175,18.0336436 102.264384,19.0990057 L102.264384,19.0990057 Z M89.1812665,15.0351271 L86.8454474,15.7496424 L86.8454474,17.7358317 L85.2838249,17.7358317 L85.2838249,19.5425181 L86.8454474,19.5425181 L86.8454474,25.009784 C86.8454474,26.378786 87.1100317,27.3538138 87.6386251,27.9342847 C88.2143835,28.5328224 89.0179145,28.8498667 89.8415769,28.8038253 C90.4691018,28.825389 91.0954763,28.7344719 91.6919414,28.5363192 L91.6257953,26.7069036 C91.279535,26.7884958 90.9252221,26.8257952 90.5697589,26.8182187 C89.6425635,26.8182187 89.179541,26.1485792 89.1812665,24.8093001 L89.1812665,19.5436837 L91.8029517,19.5436837 L91.8029517,17.7369973 L89.1812665,17.7369973 L89.1812665,15.0351271 Z M54.6909788,25.8804903 C55.2241736,25.0616534 55.485882,24.0924536 55.438717,23.1127634 C55.4755287,22.1896049 55.2293503,21.2775197 54.7335423,20.502393 C54.2670687,19.8129382 53.4876954,19.4090564 52.6628827,19.4300373 C52.0784965,19.4300373 51.5130914,19.639846 51.0667492,20.0221641 C50.5893471,20.4167211 50.2591919,20.964555 50.1303509,21.5747488 C50.0653551,21.8142804 50.0285434,22.0608057 50.0204909,22.3090793 L50.0204909,24.1157657 C50.0003594,24.8495134 50.256316,25.5634459 50.736594,26.1136111 C51.2059435,26.6538686 51.8892612,26.9534288 52.5990373,26.9295339 C53.4273012,26.9633365 54.2153022,26.5681967 54.6909788,25.8804903 L54.6909788,25.8804903 Z M57.8613888,23.0247603 C57.9476663,24.6222207 57.4179225,26.1911237 56.383743,27.400438 C55.5451259,28.3335041 54.3498951,28.8539463 53.1051986,28.8277202 C51.8881108,28.9279621 50.7170378,28.3352525 50.0659303,27.28854 L50.0216412,27.28854 L50.0216412,33 L47.6432585,33 L47.6432585,21.3054942 C47.6421082,20.146301 47.6127738,18.9562192 47.5552555,17.7346661 L49.6466217,17.7346661 L49.7794891,19.4533493 L49.823203,19.4533493 C50.0469493,19.1065821 50.3184358,18.794783 50.6301851,18.5272769 C52.4138283,16.9962559 55.0849793,17.2206347 56.5959856,19.0279039 C57.4800423,20.1620366 57.9292604,21.5811596 57.8613888,23.0247603 L57.8613888,23.0247603 Z M109.04752,18.0954206 C108.49592,18.5395157 108.082363,19.136305 107.857466,19.8129382 L107.792471,19.8129382 L107.705043,17.7381629 L105.634383,17.7381629 C105.693052,18.7650601 105.722961,19.9032725 105.723536,21.1528001 L105.70168,28.5835261 L108.078912,28.5835261 L108.078912,22.8912986 C108.049577,22.1319075 108.257219,21.3818413 108.673076,20.7489183 C109.115967,20.1154125 109.847025,19.7534924 110.612594,19.7896261 C110.862799,19.7884605 111.113003,19.810607 111.359182,19.8554828 L111.360332,19.8554828 L111.360332,17.5569115 C111.16362,17.526023 110.965181,17.5114529 110.766168,17.5126185 C110.14612,17.514367 109.543328,17.7183477 109.04752,18.0954206 L109.04752,18.0954206 Z M41.2322661,22.3096622 L39.9789419,18.382742 C39.8472249,17.9811914 39.5981706,17.0364693 39.2312037,15.5491585 L39.1869145,15.5491585 C39.0402428,16.1896579 38.8049929,17.1337972 38.4823151,18.382742 L37.248547,22.3096622 L41.2322661,22.3096622 Z M40.770394,13.5402398 L45.5714485,28.5811949 L45.5708733,28.5811949 L43.0400671,28.5811949 L41.6521499,24.1635554 L36.8286633,24.1635554 L35.5057418,28.5811949 L33.0393561,28.5811949 L37.8185536,13.5402398 L40.770394,13.5402398 Z M19.3379161,15.3317733 C19.3661001,13.0850714 20.5285454,11.0102962 22.4174472,9.83361885 C21.2204909,8.10153118 19.2873,7.04316267 17.2016856,6.97788884 C15.0073615,6.74476803 12.8797587,8.3078431 11.7616025,8.3078431 C10.6215893,8.3078431 8.89949071,7.00061812 7.04509995,7.03908306 C4.60517265,7.11892694 2.38611571,8.49084294 1.20008787,10.6524557 C-1.32726728,15.0869965 0.558183375,21.6038889 2.97912963,25.1869558 C4.19104071,26.9423556 5.60599148,28.9023188 7.4586567,28.8329654 C9.27105908,28.7566183 9.94862494,27.6615333 12.136622,27.6615333 C14.3044876,27.6615333 14.9394899,28.8329654 16.829542,28.7892552 C18.7748117,28.7560355 20.0005272,27.0262791 21.1687244,25.2545609 C22.0389766,24.0038677 22.7090651,22.622044 23.1531066,21.1592109 C20.8425955,20.1684475 19.3402169,17.8739558 19.3379161,15.3317733 L19.3379161,15.3317733 Z M11.5378562,6.64802289 C11.4343232,5.02258799 11.9721196,3.42163079 13.0333327,2.1977465 C14.1083501,0.957543754 15.6044017,0.172509404 17.2246929,0 C17.3512332,1.67380746 16.8289668,3.33246207 15.768329,4.62220299 C14.738751,5.91835473 13.1800044,6.66550695 11.5378562,6.64802289 L11.5378562,6.64802289 Z" id="Fill-1" fill="#000000" mask="url(#mask-2)"></path>
                    </g>
                </g>
            </g>
        </g>
    </g>
</svg>