<?xml version="1.0" encoding="UTF-8"?>
<svg width="65px" height="77px" viewBox="0 0 65 77" version="1.1" xmlns="http://www.w3.org/2000/svg" xmlns:xlink="http://www.w3.org/1999/xlink">
    <!-- Generator: Sketch 43.1 (39012) - http://www.bohemiancoding.com/sketch -->
    <title>Page 1</title>
    <desc>Created with Sketch.</desc>
    <defs>
        <polygon id="path-1" points="0 77 65 77 65 0.5 0 0.5"></polygon>
    </defs>
    <g id="Page-1" stroke="none" stroke-width="1" fill="none" fill-rule="evenodd">
        <g id="Text-Styles-Copy" transform="translate(-583.000000, -803.000000)">
            <g id="Page-1" transform="translate(583.000000, 802.000000)">
                <polygon id="Fill-1" fill="#000000" points="27 24 45 24 45 21 27 21"></polygon>
                <polygon id="Fill-2" fill="#000000" points="27 30 45 30 45 27 27 27"></polygon>
                <path d="M0,70 L52,70 L52,7 L0,7 L0,70 Z M3,67 L49,67 L49,10 L3,10 L3,67 Z" id="Fill-3" fill="#000000"></path>
                <polygon id="Fill-4" fill="#000000" points="6.0003 1 6.0003 7 9.0003 7 9.0003 4 55.0003 4 55.0003 62 52.0003 62 52.0003 65 57.9993 65 57.9993 1"></polygon>
                <g id="Group-17" transform="translate(0.000000, 0.500000)">
                    <path d="M15.7844,29.7177 C15.3254,29.7177 14.8944,29.5387 14.5694,29.2137 L11.6664,26.3117 L14.0964,23.8817 L15.7844,25.5697 L21.3894,19.9647 L23.8184,22.3947 L16.9984,29.2137 C16.6744,29.5387 16.2424,29.7177 15.7844,29.7177 Z" id="Fill-5" fill="#000000"></path>
                    <polygon id="Fill-7" fill="#000000" points="21 31.5 10 31.5 10 21.5 18 21.5 18 18.5 7 18.5 7 34.5 24 34.5 24 26.5 21 26.5"></polygon>
                    <mask id="mask-2" fill="white">
                        <use xlink:href="#path-1"></use>
                    </mask>
                    <g id="Clip-10"></g>
                    <polygon id="Fill-9" fill="#000000" mask="url(#mask-2)" points="27 45.5 45 45.5 45 42.5 27 42.5"></polygon>
                    <polygon id="Fill-11" fill="#000000" mask="url(#mask-2)" points="27 51.5 45 51.5 45 48.5 27 48.5"></polygon>
                    <path d="M15.7844,52.2177 C15.3254,52.2177 14.8944,52.0387 14.5694,51.7137 L11.6664,48.8117 L14.0964,46.3817 L15.7844,48.0697 L21.3894,42.4647 L23.8184,44.8947 L16.9984,51.7137 C16.6744,52.0387 16.2424,52.2177 15.7844,52.2177" id="Fill-12" fill="#000000" mask="url(#mask-2)"></path>
                    <polygon id="Fill-13" fill="#000000" mask="url(#mask-2)" points="21 54.5 10 54.5 10 43.5 18 43.5 18 40.5 7 40.5 7 57.5 24 57.5 24 48.5 21 48.5"></polygon>
                    <path d="M65,62 C65,70.284 58.284,77 50,77 C41.716,77 35,70.284 35,62 C35,53.716 41.716,47 50,47 C58.284,47 65,53.716 65,62" id="Fill-14" fill="#FFED00" mask="url(#mask-2)"></path>
                    <polygon id="Fill-15" fill="#000000" mask="url(#mask-2)" points="46.818 67.3033 55.303 58.8183 53.182 56.6963 44.697 65.1823"></polygon>
                    <polygon id="Fill-16" fill="#000000" mask="url(#mask-2)" points="44.6967 58.818 53.1817 67.303 55.3037 65.182 46.8177 56.697"></polygon>
                </g>
            </g>
        </g>
    </g>
</svg>