<?xml version="1.0" encoding="UTF-8"?>
<svg width="24px" height="16px" viewBox="0 0 24 16" version="1.1" xmlns="http://www.w3.org/2000/svg" xmlns:xlink="http://www.w3.org/1999/xlink">
    <!-- Generator: Sketch 43.1 (39012) - http://www.bohemiancoding.com/sketch -->
    <title>Page 1</title>
    <desc>Created with Sketch.</desc>
    <defs></defs>
    <g id="Page-1" stroke="none" stroke-width="1" fill="none" fill-rule="evenodd">
        <g id="Text-Styles-Copy" transform="translate(-908.000000, -399.000000)" fill="#000000">
            <path d="M910,413 L910,402.179 L919.47,408.848 C919.632,408.949 919.816,409 920,409 C920.184,409 920.368,408.949 920.53,408.848 L930,402.178 L930.001,413 L910,413 Z M928.113,401 L920,406.82 L911.887,401 L928.113,401 Z M930,399 L910,399 L908,399 L908,401 L908,413 L908,415 L910,415 L930,415 L932,415 L932,413 L932,401 L932,399 L930,399 Z" id="Page-1"></path>
        </g>
    </g>
</svg>