<svg xmlns="http://www.w3.org/2000/svg"><symbol viewBox="0 0 15 16" id="icon-arrow-left"><title>icons24/arrow-left</title><desc>Created with Sketch.</desc> <!-- Generator: Sketch 43.1 (39012) - http://www.bohemiancoding.com/sketch -->    <g id="arrow-left-1600-cards" stroke="none" stroke-width="1" fill="" fill-rule="evenodd"> <g id="arrow-left-Card-hov-1" transform="translate(-1348.000000, -26.000000)" fill=""> <g id="arrow-left-Group-31" transform="translate(207.000000, 0.000000)"> <g id="arrow-left-Group-30-Copy" transform="translate(1050.000000, 4.000000)"> <g id="arrow-left-Group-8" transform="translate(68.000000, 0.000000)"> <g id="arrow-left-icons24/arrow-left" transform="translate(18.000000, 18.000000)"> <path d="M13.987649,15.7530773 L13.987649,5 L11.987649,5 L11.987649,15.779547 L6.95566654,9.94250294 L4.98459721,11.567897 L12.0202417,18.5563492 L12.9756861,19.043335 L13.9161158,18.5563492 L20.9787378,11.567897 L19.0022974,9.94250294 L13.987649,15.7530773 Z" id="arrow-left-Combined-Shape" transform="translate(12.981668, 12.021667) rotate(-90.000000) translate(-12.981668, -12.021667) "/> </g> </g> </g> </g> </g> </g> </symbol><symbol viewBox="0 0 15 16" id="icon-arrow-right"><title>icons24/arrow-right</title><desc>Created with Sketch.</desc> <!-- Generator: Sketch 43.1 (39012) - http://www.bohemiancoding.com/sketch -->    <g id="arrow-right-1600-cards" stroke="none" stroke-width="1" fill="" fill-rule="evenodd"> <g id="arrow-right-Card-hov-1" transform="translate(-1279.000000, -26.000000)" fill=""> <g id="arrow-right-Group-31" transform="translate(207.000000, 0.000000)"> <g id="arrow-right-Group-30-Copy" transform="translate(1050.000000, 4.000000)"> <g id="arrow-right-Group-9"> <g id="arrow-right-icons24/arrow-right" transform="translate(18.000000, 18.000000)"> <path d="M12.0276489,15.7530773 L12.0276489,5 L10.0276489,5 L10.0276489,15.779547 L4.9956665,9.94250294 L3.02459717,11.567897 L10.0602417,18.5563492 L11.015686,19.043335 L11.9561157,18.5563492 L19.0187378,11.567897 L17.0422974,9.94250294 L12.0276489,15.7530773 Z" id="arrow-right-Combined-Shape" transform="translate(11.021667, 12.021667) rotate(90.000000) translate(-11.021667, -12.021667) "/> </g> </g> </g> </g> </g> </g> </symbol><symbol viewBox="0 0 10 11" id="icon-arrow-up"><title>Combined Shape</title><desc>Created with Sketch.</desc> <!-- Generator: Sketch 43.1 (39012) - http://www.bohemiancoding.com/sketch -->    <g id="arrow-up-Page-2" stroke="none" stroke-width="1" fill="none" fill-rule="evenodd"> <path d="M6.31964874,4.25251505 L3.19744231e-14,4.25251505 L3.19744231e-14,6.25305506 L6.31991839,6.25305506 L4.32288646,8.00014 L5.64041281,9.50567011 L10,5.25308506 L5.64041281,1 L4.32288646,2.5050301 L6.31964874,4.25251505 Z" id="arrow-up-Combined-Shape" fill="#000000" transform="translate(5.000000, 5.252835) rotate(-90.000000) translate(-5.000000, -5.252835) "/> </g> </symbol><symbol viewBox="0 0 11 11" id="icon-arrow"><title>arrow</title> <g id="arrow-Page-1" stroke="none" stroke-width="1" fill="" fill-rule="evenodd"> <g id="arrow-Text-Styles-Copy" transform="translate(-457.000000, -402.000000)" fill-rule="nonzero" fill=""> <path d="M464.585786,404 L457,404 L457,402 L467,402 L468,402 L468,403 L468,413 L466,413 L466,405.414214 L458.458175,412.956039 L457.038743,411.547044 L464.585786,404 Z" id="arrow-Combined-Shape"/> </g> </g> </symbol><symbol viewBox="0 0 24 26" id="icon-chat"><title>Combined Shape</title><desc>Created with Sketch.</desc> <!-- Generator: Sketch 44 (41411) - http://www.bohemiancoding.com/sketch -->    <g id="chat-menu-desktop" stroke="none" stroke-width="1" fill="none" fill-rule="evenodd"> <g id="chat-menu7_services-question" transform="translate(-756.000000, -812.000000)" stroke-width="2" stroke="#000000"> <g id="chat-menu+buttons" transform="translate(30.000000, 779.000000)"> <g id="chat-Group-11" transform="translate(255.000000, 15.000000)"> <g id="chat-Group-7" transform="translate(472.000000, 19.000000)"> <g id="chat-Group-17-Copy-3"> <g id="chat-Group-22"> <path d="M12.7447307,16 L22,16 L22,0 L0,0 L0,16 L6,16 L6,22 L12.7447307,16 Z" id="chat-Combined-Shape"/> </g> </g> </g> </g> </g> </g> </g> </symbol><symbol viewBox="0 0 14 25" id="icon-facebook"><title>Fill 1 Copy</title><desc>Created with Sketch.</desc> <!-- Generator: Sketch 44 (41411) - http://www.bohemiancoding.com/sketch -->    <g id="facebook-menu-desktop" stroke="none" stroke-width="1" fill="none" fill-rule="evenodd"> <g id="facebook-menu7_services-question" transform="translate(-324.000000, -812.000000)" fill="#000000"> <g id="facebook-menu+buttons" transform="translate(30.000000, 779.000000)"> <g id="facebook-Group-11" transform="translate(255.000000, 15.000000)"> <g id="facebook-Group-10" transform="translate(39.000000, 18.000000)"> <path d="M13.0311032,0.00520817058 L9.78302761,0 C6.13418331,0 3.77644449,2.41476829 3.77644449,6.1524119 L3.77644449,8.98930242 L0.510661125,8.98930242 C0.228638688,8.98930242 0,9.2176807 0,9.49918232 L0,13.6092101 C0,13.8909722 0.228899097,14.11909 0.510661125,14.11909 L3.77618408,14.11909 L3.77618408,24.4901201 C3.77618408,24.7718821 4.00482277,25 4.2868452,25 L8.54738914,25 C8.82967199,25 9.05805027,24.7716217 9.05805027,24.4901201 L9.05805027,14.11909 L12.8764205,14.11909 C13.158443,14.11909 13.3870817,13.8909722 13.3870817,13.6092101 L13.3886441,9.49918232 C13.3886441,9.36403029 13.3347395,9.23460725 13.2389092,9.13877691 C13.1430789,9.04294657 13.013135,8.98930242 12.8777226,8.98930242 L9.05857109,8.98930242 L9.05857109,6.58442965 C9.05857109,5.4287366 9.33434372,4.84203619 10.8423695,4.84203619 L13.0305824,4.84125496 C13.3126048,4.84125496 13.5409831,4.61287668 13.5409831,4.33137506 L13.5409831,0.51508807 C13.5409831,0.233846859 13.3128652,0.00572898764 13.0311032,0.00520817058" id="facebook-Fill-1-Copy"/> </g> </g> </g> </g> </g> </symbol><symbol viewBox="0 0 60 32" id="icon-icon-1"><title>Group 12</title><desc>Created with Sketch.</desc> <!-- Generator: Sketch 43.1 (39012) - http://www.bohemiancoding.com/sketch -->    <g id="icon-1-1600-cards" stroke="" stroke-width="1" fill="none" fill-rule="evenodd"> <g id="icon-1-creds-1600-c-card-in-about-01" transform="translate(-865.000000, -3160.000000)" stroke="" stroke-width="3"> <g id="icon-1-Group-25" transform="translate(865.000000, 3141.000000)"> <g id="icon-1-Group-12" transform="translate(0.000000, 19.000000)"> <path d="M1.5,1.5 L58.5,1.5 L58.5,9.8569251 L56.8476681,11.8397234 L56.5,12.2569251 L56.5,12.8 L56.5,19.2 L56.5,19.7430749 L56.8476681,20.1602766 L58.5,22.1430749 L58.5,30.5 L1.5,30.5 L1.5,1.5 Z" id="icon-1-Combined-Shape"/> <path d="M19.4999999,29 L19.5000001,1" id="icon-1-Path-4" stroke-dasharray="7,3"/> </g> </g> </g> </g> </symbol><symbol viewBox="0 0 73 37" id="icon-icon-2"><title>Group 7</title><desc>Created with Sketch.</desc> <!-- Generator: Sketch 43.1 (39012) - http://www.bohemiancoding.com/sketch -->    <g id="icon-2-1600-cards" stroke="" stroke-width="1" fill="none" fill-rule="evenodd"> <g id="icon-2-creds-1600-c-card-in-about-01" transform="translate(-260.000000, -3160.000000)"> <g id="icon-2-Group-7" transform="translate(255.000000, 3141.000000)"> <polygon id="icon-2-Path" stroke="" stroke-width="3" transform="translate(28.620000, 37.775000) rotate(90.000000) translate(-28.620000, -37.775000) " points="45.24 45.085 32.775 40.93 32.775 50.24 36.93 54.395 36.93 58.55 28.62 54.395 20.31 58.55 20.31 54.395 24.465 50.24 24.465 40.93 12 45.085 12 40.93 24.465 30.465 24.465 21.31 28.62 17 32.775 21.31 32.775 30.465 45.24 40.93"/> <path d="M58,38 L78,38" id="icon-2-Path-4" stroke="" stroke-width="3" stroke-dasharray="4"/> </g> </g> </g> </symbol><symbol viewBox="0 0 24 16" id="icon-mail-export"><title>Page 1 Copy 2</title><desc>Created with Sketch.</desc> <!-- Generator: Sketch 44 (41411) - http://www.bohemiancoding.com/sketch -->    <g id="mail-export-menu-desktop" stroke="none" stroke-width="1" fill="none" fill-rule="evenodd"> <g id="mail-export-menu7_services-question" transform="translate(-951.000000, -816.000000)" fill="#000000"> <g id="mail-export-menu+buttons" transform="translate(30.000000, 779.000000)"> <g id="mail-export-Group-11" transform="translate(255.000000, 15.000000)"> <g id="mail-export-Group-6" transform="translate(666.000000, 21.000000)"> <path d="M2,15 L2,4.179 L11.47,10.848 C11.632,10.949 11.816,11 12,11 C12.184,11 12.368,10.949 12.53,10.848 L22,4.178 L22.001,15 L2,15 Z M20.113,3 L12,8.82 L3.887,3 L20.113,3 Z M22,1 L2,1 L0,1 L0,3 L0,15 L0,17 L2,17 L22,17 L24,17 L24,15 L24,3 L24,1 L22,1 Z" id="mail-export-Page-1-Copy-2"/> </g> </g> </g> </g> </g> </symbol><symbol viewBox="0 -8.5 82 82" id="icon-money"><title>Group 2</title><path d="M5 32.51l.01-3h41l-2 3H5zM60.02-3.5l-.01 28.01h-55L5-3.5h55.02zm5 31.83V-8.5H0v46.01h65.01l.01-9.18zM10 13.01h9.01v5H10v-5zM10 8h5V3h-5v5zm22.51-2.5c2.766-.003 5.01 2.236 5.01 5 .004 2.764-2.234 5.007-5 5.01-2.763.003-5.006-2.236-5.01-5v-.01c.007-2.76 2.242-4.994 5-5zm0 15.01c5.527.003 10.01-4.474 10.01-10C42.525 4.984 38.048.503 32.52.5c-5.524-.003-10.006 4.474-10.01 10 .005 5.523 4.48 10 10 10.01zM45.017 5.5c2.765 0 5.005 2.24 5.005 5.005s-2.24 5.005-5.004 5.005c-.336.003-.67-.03-1-.1-.686 1.608-1.7 3.055-2.977 4.25 1.25.564 2.605.853 3.976.85 5.526 0 10.005-4.48 10.005-10.005S50.543.5 45.017.5c-1.37-.003-2.727.286-3.977.85 1.276 1.195 2.29 2.642 2.976 4.25.33-.07.664-.103 1-.1z"/><path fill="#FEEC34" d="M62 16.5c11.046 0 20 8.954 20 20s-8.954 20-20 20-20-8.954-20-20 8.954-20 20-20"/><path d="M64.507 26.5h-5v7.51H52v5h7.5v7.5h5v-7.5H72v-5h-7.5V26.5"/></symbol><symbol viewBox="0 0 82 82" id="icon-money2"><title>Fill 33</title><path d="M0 45h50v5H0zM0 35h50v5H0zM37.51 12.51h5v5h-5z"/><path d="M0 0v30h50V0H0zm45 25H5V5h40v20z"/><path d="M7.51 12.51h5v5h-5zM25 22.51c4.143.004 7.504-3.35 7.508-7.492.005-4.142-3.35-7.504-7.492-7.508-4.14-.004-7.502 3.35-7.508 7.49.003 4.14 3.353 7.498 7.492 7.51zm-2.506-7.5c.006-1.38 1.126-2.497 2.506-2.5 1.384 0 2.505 1.123 2.504 2.506 0 1.383-1.122 2.505-2.506 2.504-1.383 0-2.504-1.123-2.504-2.506v-.004z"/></symbol><symbol viewBox="0 0 22 20" id="icon-pc"><title>Group 23 Copy 4</title><desc>Created with Sketch.</desc> <!-- Generator: Sketch 44 (41411) - http://www.bohemiancoding.com/sketch -->    <g id="pc-menu-desktop" stroke="none" stroke-width="1" fill="none" fill-rule="evenodd"> <g id="pc-menu7_services-question" transform="translate(-1155.000000, -814.000000)" stroke="#000000" stroke-width="2"> <g id="pc-menu+buttons" transform="translate(30.000000, 779.000000)"> <g id="pc-Group-11" transform="translate(255.000000, 15.000000)"> <g id="pc-Group-23-Copy-4" transform="translate(870.000000, 20.000000)"> <polygon id="pc-Rectangle-6-Copy" points="8 14 14 14 14 19 8 19"/> <path d="M4.08669355,19 L18,19" id="pc-Path-3"/> <rect id="pc-Rectangle-6" x="1" y="1" width="20" height="13"/> </g> </g> </g> </g> </g> </symbol><symbol viewBox="-16 -18.5 82 82" id="icon-people"><title>Fill 32</title><path d="M21.493-1.01c1.386-.002 2.51 1.12 2.513 2.507s-1.12 2.51-2.507 2.513c-1.387.002-2.512-1.12-2.514-2.507V1.5c.002-1.384 1.12-2.506 2.505-2.51h.003zm0 10c4.142-.004 7.497-3.365 7.493-7.507S25.62-6.014 21.48-6.01c-4.143.004-7.498 3.365-7.494 7.507V1.5c.012 4.137 3.368 7.486 7.505 7.49h.003zM18.84 21.5c-.154-1.383-.436-2.75-.84-4.08 1.07-.59 2.27-.906 3.493-.92 3.176.004 6.005 2.007 7.066 5h-9.72zm-29.677 0c1-7.08 6.146-12.51 12.332-12.51s11.332 5.42 12.332 12.51H-10.84h.003zm32.33-10c-1.91.012-3.79.467-5.493 1.33C12.854 7.5 7.52 3.99 1.5 3.99c-9.652 0-17.5 8.98-17.5 20v2.51h49.986v-2.51c-.01-6.896-5.6-12.482-12.495-12.49h.003zm-20-25c2.76 0 5 2.24 5 5s-2.24 5-5 5-5-2.24-5-5 2.24-5 5-5zm0 15c5.523 0 10-4.477 10-10s-4.477-10-10-10-10 4.477-10 10 4.477 10 10 10z"/></symbol><symbol viewBox="-10 -5.5 82 82" id="icon-pig"><title>Icons/Money</title><path d="M29.068 25.457c-5.546-2.59-10.42-2.88-16.15.58-.903.55-1.19 1.726-.64 2.63.02.03.038.06.06.09.323.56.904.923 1.55.97.357-.007.7-.14.967-.38 4.636-2.5 7.583-2.36 12.275-.39.967.535 2.184.186 2.72-.78.534-.967.185-2.185-.782-2.72zm9.362 8.47c1.074-.004 1.95.863 1.953 1.937.004 1.074-.863 1.948-1.937 1.953-1.074.004-1.95-.863-1.953-1.937v-.003c-.004-1.073.86-1.946 1.934-1.95h.003zm4.563 13.55v6h-10l-.077 5.42c0 .55-.228.09-.8.59-.438.38-1.167 0-1.59 0-.968 0-1.59.39-1.59-.59l.057-5.42h-16l.05 5.42c0 .39-.49.9-1.588.59-.388.39-.214 0-.8 0-.97 0-1.59.39-1.59-.59l-.072-5.42h-10s-.05-3.96-.05-11.24c0-13.81 9.3-22.76 23.05-22.76 4.65 0 9.075.45 13.144 3.36-.194.2-.388.39-.58.59-1.52 1.414-2.596 3.238-3.1 5.25l3.873.78c.32-1.207.995-2.29 1.938-3.11 1.978-1.722 4.39-2.867 6.975-3.31 0 2.53-.387 6.03-2.13 8.36l-.776 1.17.775 1.17c1.432 2.482 2.168 5.304 2.13 8.17l-.25 2.57h3v3h-4zm9-7.71h-3.875c-.204-2.56-.86-5.06-1.938-7.39 2.713-4.87 1.938-11.68 1.938-12.06l-.194-1.95-1.937.19c-2.473.29-4.89.948-7.17 1.95-4.95-3.812-10.996-5.927-17.243-6.03-14.53 0-25.38 9.53-27.318 23.34H-8.07c-1.074.008-1.938.885-1.93 1.96.007 1.062.867 1.922 1.93 1.93h1.938c0 .2.1.34.1.53v11.11l.025 5.13h10v1c0 3.11 4.213 4.98 7.313 4.98 1.55 0 2.906.21 4.068-.96 1.162-1.17 2.62-3.46 2.62-5.02h6c0 3.11 3.587 5.98 6.686 5.98 3.1 0 7.313-1.87 7.313-4.98v-1h10v-6h4v-12.71z"/><path fill="#FEEB34" d="M32.335 23.06c2.896-3.048 4.673-7.17 4.673-11.707 0-9.39-7.61-17-17-17s-17 7.61-17 17c0 4.897 2.07 9.31 5.384 12.412 3.703-2.17 8.015-3.412 12.616-3.412 4.078 0 7.927.976 11.327 2.707z"/></symbol><symbol viewBox="0 0 24 21" id="icon-telegram"><title>Page 1 Copy</title><desc>Created with Sketch.</desc> <!-- Generator: Sketch 44 (41411) - http://www.bohemiancoding.com/sketch -->    <g id="telegram-menu-desktop" stroke="none" stroke-width="1" fill="none" fill-rule="evenodd"> <g id="telegram-menu7_services-question" transform="translate(-531.000000, -814.000000)" fill="#000000"> <g id="telegram-menu+buttons" transform="translate(30.000000, 779.000000)"> <g id="telegram-Group-11" transform="translate(255.000000, 15.000000)"> <g id="telegram-Group-9" transform="translate(246.000000, 20.000000)"> <path d="M19.6356525,4.05936244 L9.40249504,13.3107666 L9.00401398,17.5690236 L6.99014618,11.3825707 L18.9411493,3.82750515 C19.53778,3.46495819 20.0848064,3.65990177 19.6356525,4.05936244 M22.3796459,0.13337333 L1.12042088,8.34950152 C-0.330568487,8.93281831 -0.321974584,9.74371769 0.855924564,10.1053296 L6.15805147,11.7635077 L8.18674709,17.995869 C8.43338767,18.6779934 8.31182624,18.9485456 9.02667873,18.9485456 C9.57838063,18.9485456 9.82310651,18.6965171 10.1303942,18.3957305 C10.3257831,18.2041265 11.4859156,17.0739614 12.7812796,15.8119933 L18.296473,19.8950327 C19.3113551,20.456041 20.0441078,20.1654067 20.2968488,18.9505939 L23.9171532,1.85620612 C24.2878042,0.367189851 23.3506234,-0.308210832 22.3796459,0.13337333" id="telegram-Page-1-Copy"/> </g> </g> </g> </g> </g> </symbol><symbol viewBox="0 0 18 21" id="icon-user"><title>user</title> <g id="user-Page-1" stroke="none" stroke-width="1" fill-rule="evenodd"> <g id="user-Text-Styles-Copy" transform="translate(-403.000000, -397.000000)" fill=""> <path d="M412,406.97999 C414.754592,406.97447 416.983674,404.737932 416.979996,401.983337 C416.976317,399.228741 414.741271,396.998165 411.986673,397.000001 C409.232076,397.001838 407.000006,399.235392 407,401.98999 C407.005515,404.747508 409.242477,406.979996 412,406.97999 L412,406.97999 Z M412,398.98999 C413.656854,398.98999 415,400.333136 415,401.98999 C415,403.646844 413.656854,404.98999 412,404.98999 C410.343146,404.98999 409,403.646844 409,401.98999 C409,400.333136 410.343146,398.98999 412,398.98999 L412,398.98999 Z M412,407.97999 C408.1,407.97999 403,410.43999 403,415.92999 L403,416.94999 C403,416.94999 421,417.09999 421,416.94999 C420.998681,414.566201 420.049087,412.280863 418.360681,410.598086 C416.672276,408.915308 414.38378,407.97335 412,407.97999 L412,407.97999 Z M405,415.00999 C405.5,411.48999 408.907,409.96999 412,409.96999 C415.093,409.96999 418.5,411.47999 419,415.00999 L405,415.00999 L405,415.00999 Z" id="user-Shape_22_copy"/> </g> </g> </symbol></svg>