<?xml version="1.0" encoding="UTF-8"?>
<svg width="18px" height="21px" viewBox="0 0 18 21" version="1.1" xmlns="http://www.w3.org/2000/svg" xmlns:xlink="http://www.w3.org/1999/xlink">
    <g id="Page-1" stroke="none" stroke-width="1" fill-rule="evenodd">
        <g id="Text-Styles-Copy" transform="translate(-403.000000, -397.000000)" fill="">
            <path d="M412,406.97999 C414.754592,406.97447 416.983674,404.737932 416.979996,401.983337 C416.976317,399.228741 414.741271,396.998165 411.986673,397.000001 C409.232076,397.001838 407.000006,399.235392 407,401.98999 C407.005515,404.747508 409.242477,406.979996 412,406.97999 L412,406.97999 Z M412,398.98999 C413.656854,398.98999 415,400.333136 415,401.98999 C415,403.646844 413.656854,404.98999 412,404.98999 C410.343146,404.98999 409,403.646844 409,401.98999 C409,400.333136 410.343146,398.98999 412,398.98999 L412,398.98999 Z M412,407.97999 C408.1,407.97999 403,410.43999 403,415.92999 L403,416.94999 C403,416.94999 421,417.09999 421,416.94999 C420.998681,414.566201 420.049087,412.280863 418.360681,410.598086 C416.672276,408.915308 414.38378,407.97335 412,407.97999 L412,407.97999 Z M405,415.00999 C405.5,411.48999 408.907,409.96999 412,409.96999 C415.093,409.96999 418.5,411.47999 419,415.00999 L405,415.00999 L405,415.00999 Z" id="Shape_22_copy"></path>
        </g>
    </g>
</svg> 