<svg xmlns="http://www.w3.org/2000/svg"><symbol viewBox="0 0 10 11" id="icon-arrow-up"><title>Combined Shape</title><desc>Created with Sketch.</desc> <!-- Generator: Sketch 43.1 (39012) - http://www.bohemiancoding.com/sketch -->    <g id="arrow-up-Page-2" stroke="none" stroke-width="1" fill="none" fill-rule="evenodd"> <path d="M6.31964874,4.25251505 L3.19744231e-14,4.25251505 L3.19744231e-14,6.25305506 L6.31991839,6.25305506 L4.32288646,8.00014 L5.64041281,9.50567011 L10,5.25308506 L5.64041281,1 L4.32288646,2.5050301 L6.31964874,4.25251505 Z" id="arrow-up-Combined-Shape" fill="#000000" transform="translate(5.000000, 5.252835) rotate(-90.000000) translate(-5.000000, -5.252835) "/> </g> </symbol><symbol viewBox="0 0 11 11" id="icon-arrow"><title>arrow</title> <g id="arrow-Page-1" stroke="none" stroke-width="1" fill="" fill-rule="evenodd"> <g id="arrow-Text-Styles-Copy" transform="translate(-457.000000, -402.000000)" fill-rule="nonzero" fill=""> <path d="M464.585786,404 L457,404 L457,402 L467,402 L468,402 L468,403 L468,413 L466,413 L466,405.414214 L458.458175,412.956039 L457.038743,411.547044 L464.585786,404 Z" id="arrow-Combined-Shape"/> </g> </g> </symbol><symbol viewBox="0 0 24 26" id="icon-chat"><title>Combined Shape</title><desc>Created with Sketch.</desc> <!-- Generator: Sketch 44 (41411) - http://www.bohemiancoding.com/sketch -->    <g id="chat-menu-desktop" stroke="none" stroke-width="1" fill="none" fill-rule="evenodd"> <g id="chat-menu7_services-question" transform="translate(-756.000000, -812.000000)" stroke-width="2" stroke="#000000"> <g id="chat-menu+buttons" transform="translate(30.000000, 779.000000)"> <g id="chat-Group-11" transform="translate(255.000000, 15.000000)"> <g id="chat-Group-7" transform="translate(472.000000, 19.000000)"> <g id="chat-Group-17-Copy-3"> <g id="chat-Group-22"> <path d="M12.7447307,16 L22,16 L22,0 L0,0 L0,16 L6,16 L6,22 L12.7447307,16 Z" id="chat-Combined-Shape"/> </g> </g> </g> </g> </g> </g> </g> </symbol><symbol viewBox="0 0 14 25" id="icon-facebook"><title>Fill 1 Copy</title><desc>Created with Sketch.</desc> <!-- Generator: Sketch 44 (41411) - http://www.bohemiancoding.com/sketch -->    <g id="facebook-menu-desktop" stroke="none" stroke-width="1" fill="none" fill-rule="evenodd"> <g id="facebook-menu7_services-question" transform="translate(-324.000000, -812.000000)" fill="#000000"> <g id="facebook-menu+buttons" transform="translate(30.000000, 779.000000)"> <g id="facebook-Group-11" transform="translate(255.000000, 15.000000)"> <g id="facebook-Group-10" transform="translate(39.000000, 18.000000)"> <path d="M13.0311032,0.00520817058 L9.78302761,0 C6.13418331,0 3.77644449,2.41476829 3.77644449,6.1524119 L3.77644449,8.98930242 L0.510661125,8.98930242 C0.228638688,8.98930242 0,9.2176807 0,9.49918232 L0,13.6092101 C0,13.8909722 0.228899097,14.11909 0.510661125,14.11909 L3.77618408,14.11909 L3.77618408,24.4901201 C3.77618408,24.7718821 4.00482277,25 4.2868452,25 L8.54738914,25 C8.82967199,25 9.05805027,24.7716217 9.05805027,24.4901201 L9.05805027,14.11909 L12.8764205,14.11909 C13.158443,14.11909 13.3870817,13.8909722 13.3870817,13.6092101 L13.3886441,9.49918232 C13.3886441,9.36403029 13.3347395,9.23460725 13.2389092,9.13877691 C13.1430789,9.04294657 13.013135,8.98930242 12.8777226,8.98930242 L9.05857109,8.98930242 L9.05857109,6.58442965 C9.05857109,5.4287366 9.33434372,4.84203619 10.8423695,4.84203619 L13.0305824,4.84125496 C13.3126048,4.84125496 13.5409831,4.61287668 13.5409831,4.33137506 L13.5409831,0.51508807 C13.5409831,0.233846859 13.3128652,0.00572898764 13.0311032,0.00520817058" id="facebook-Fill-1-Copy"/> </g> </g> </g> </g> </g> </symbol><symbol viewBox="0 0 24 16" id="icon-mail-export"><title>Page 1 Copy 2</title><desc>Created with Sketch.</desc> <!-- Generator: Sketch 44 (41411) - http://www.bohemiancoding.com/sketch -->    <g id="mail-export-menu-desktop" stroke="none" stroke-width="1" fill="none" fill-rule="evenodd"> <g id="mail-export-menu7_services-question" transform="translate(-951.000000, -816.000000)" fill="#000000"> <g id="mail-export-menu+buttons" transform="translate(30.000000, 779.000000)"> <g id="mail-export-Group-11" transform="translate(255.000000, 15.000000)"> <g id="mail-export-Group-6" transform="translate(666.000000, 21.000000)"> <path d="M2,15 L2,4.179 L11.47,10.848 C11.632,10.949 11.816,11 12,11 C12.184,11 12.368,10.949 12.53,10.848 L22,4.178 L22.001,15 L2,15 Z M20.113,3 L12,8.82 L3.887,3 L20.113,3 Z M22,1 L2,1 L0,1 L0,3 L0,15 L0,17 L2,17 L22,17 L24,17 L24,15 L24,3 L24,1 L22,1 Z" id="mail-export-Page-1-Copy-2"/> </g> </g> </g> </g> </g> </symbol><symbol viewBox="0 0 22 20" id="icon-pc"><title>Group 23 Copy 4</title><desc>Created with Sketch.</desc> <!-- Generator: Sketch 44 (41411) - http://www.bohemiancoding.com/sketch -->    <g id="pc-menu-desktop" stroke="none" stroke-width="1" fill="none" fill-rule="evenodd"> <g id="pc-menu7_services-question" transform="translate(-1155.000000, -814.000000)" stroke="#000000" stroke-width="2"> <g id="pc-menu+buttons" transform="translate(30.000000, 779.000000)"> <g id="pc-Group-11" transform="translate(255.000000, 15.000000)"> <g id="pc-Group-23-Copy-4" transform="translate(870.000000, 20.000000)"> <polygon id="pc-Rectangle-6-Copy" points="8 14 14 14 14 19 8 19"/> <path d="M4.08669355,19 L18,19" id="pc-Path-3"/> <rect id="pc-Rectangle-6" x="1" y="1" width="20" height="13"/> </g> </g> </g> </g> </g> </symbol><symbol viewBox="0 0 24 21" id="icon-telegram"><title>Page 1 Copy</title><desc>Created with Sketch.</desc> <!-- Generator: Sketch 44 (41411) - http://www.bohemiancoding.com/sketch -->    <g id="telegram-menu-desktop" stroke="none" stroke-width="1" fill="none" fill-rule="evenodd"> <g id="telegram-menu7_services-question" transform="translate(-531.000000, -814.000000)" fill="#000000"> <g id="telegram-menu+buttons" transform="translate(30.000000, 779.000000)"> <g id="telegram-Group-11" transform="translate(255.000000, 15.000000)"> <g id="telegram-Group-9" transform="translate(246.000000, 20.000000)"> <path d="M19.6356525,4.05936244 L9.40249504,13.3107666 L9.00401398,17.5690236 L6.99014618,11.3825707 L18.9411493,3.82750515 C19.53778,3.46495819 20.0848064,3.65990177 19.6356525,4.05936244 M22.3796459,0.13337333 L1.12042088,8.34950152 C-0.330568487,8.93281831 -0.321974584,9.74371769 0.855924564,10.1053296 L6.15805147,11.7635077 L8.18674709,17.995869 C8.43338767,18.6779934 8.31182624,18.9485456 9.02667873,18.9485456 C9.57838063,18.9485456 9.82310651,18.6965171 10.1303942,18.3957305 C10.3257831,18.2041265 11.4859156,17.0739614 12.7812796,15.8119933 L18.296473,19.8950327 C19.3113551,20.456041 20.0441078,20.1654067 20.2968488,18.9505939 L23.9171532,1.85620612 C24.2878042,0.367189851 23.3506234,-0.308210832 22.3796459,0.13337333" id="telegram-Page-1-Copy"/> </g> </g> </g> </g> </g> </symbol><symbol viewBox="0 0 18 21" id="icon-user"><title>user</title> <g id="user-Page-1" stroke="none" stroke-width="1" fill-rule="evenodd"> <g id="user-Text-Styles-Copy" transform="translate(-403.000000, -397.000000)" fill=""> <path d="M412,406.97999 C414.754592,406.97447 416.983674,404.737932 416.979996,401.983337 C416.976317,399.228741 414.741271,396.998165 411.986673,397.000001 C409.232076,397.001838 407.000006,399.235392 407,401.98999 C407.005515,404.747508 409.242477,406.979996 412,406.97999 L412,406.97999 Z M412,398.98999 C413.656854,398.98999 415,400.333136 415,401.98999 C415,403.646844 413.656854,404.98999 412,404.98999 C410.343146,404.98999 409,403.646844 409,401.98999 C409,400.333136 410.343146,398.98999 412,398.98999 L412,398.98999 Z M412,407.97999 C408.1,407.97999 403,410.43999 403,415.92999 L403,416.94999 C403,416.94999 421,417.09999 421,416.94999 C420.998681,414.566201 420.049087,412.280863 418.360681,410.598086 C416.672276,408.915308 414.38378,407.97335 412,407.97999 L412,407.97999 Z M405,415.00999 C405.5,411.48999 408.907,409.96999 412,409.96999 C415.093,409.96999 418.5,411.47999 419,415.00999 L405,415.00999 L405,415.00999 Z" id="user-Shape_22_copy"/> </g> </g> </symbol></svg>