<?xml version="1.0" encoding="utf-8"?>
<!-- Generator: Adobe Illustrator 16.0.3, SVG Export Plug-In . SVG Version: 6.00 Build 0)  -->
<!DOCTYPE svg PUBLIC "-//W3C//DTD SVG 1.1//EN" "http://www.w3.org/Graphics/SVG/1.1/DTD/svg11.dtd">
<svg version="1.1" id="Ebene_1" xmlns="http://www.w3.org/2000/svg" xmlns:xlink="http://www.w3.org/1999/xlink" x="0px" y="0px"
	 width="145.984px" height="42.208px" viewBox="0 0 145.984 42.208" enable-background="new 0 0 145.984 42.208"
	 xml:space="preserve">
<polygon fill="#8F174F" points="3.547,16.984 3.547,33.236 13.719,33.236 14.28,30.531 6.788,30.531 6.788,26.406 12.987,26.406 
	13.551,23.478 6.788,23.478 6.788,19.685 13.675,19.685 14.28,16.984 "/>
<path fill="#8F174F" d="M107.264,26.149c0.607,0.075,1.433,0.194,1.843,0.399c0.411,0.207,0.756,0.508,1,0.805
	c0.243,0.297,0.418,0.632,0.524,1.005s0.16,0.749,0.16,1.13v0.229c0,0.67-0.122,1.244-0.365,1.723
	c-0.244,0.48-0.59,0.867-1.038,1.164c-0.45,0.297-1.304,0.535-1.936,0.673s-1.327,0.205-2.089,0.205
	c-0.639,0-1.324-0.05-2.054-0.147c-0.731-0.1-1.461-0.263-2.191-0.492l0.508-2.228c0.715,0.198,1.362,0.317,1.94,0.401
	s1.157,0.113,1.735,0.125c0.543,0.012,0.892,0.008,1.253-0.032c0.332-0.037,0.58-0.134,0.762-0.255
	c0.184-0.122,0.354-0.311,0.407-0.499c0.047-0.158,0.06-0.251,0.06-0.479c0-0.35-0.098-0.597-0.272-0.832
	c-0.175-0.236-0.537-0.365-1.101-0.441l-1.695-0.233c-1.188-0.151-2.408-0.476-2.972-1.038c-0.563-0.563-0.845-1.309-0.845-2.236
	v-0.229c0-1.201,0.445-2.104,1.336-2.705c0.891-0.601,2.521-0.982,4.18-0.982c0.821,0,1.563,0.061,2.226,0.183
	s1.19,0.259,1.586,0.411l-0.543,2.161c-0.533-0.139-1.075-0.238-1.586-0.305c-0.558-0.074-1.049-0.108-1.627-0.108
	c-1.05,0-1.728,0.06-2.101,0.278c-0.373,0.222-0.534,0.431-0.534,0.918c0,0.41,0.135,0.639,0.362,0.813
	c0.229,0.176,0.594,0.316,1.171,0.393L107.264,26.149z"/>
<path fill="#8F174F" d="M96.437,21.393c-0.87-0.221-1.719-0.277-2.699-0.277c-0.932,0-2.055,0.116-2.79,0.337
	c-0.734,0.22-1.359,0.559-1.872,1.015c-0.514,0.457-0.909,1.043-1.185,1.758c-0.277,0.715-0.415,1.566-0.415,2.557v0.799
	c0,1.933,0.391,3.352,1.173,4.256c0.782,0.906,2.231,1.488,3.781,1.488c1.611,0,2.619-0.441,3.443-1.234v0.519
	c0,1.263-0.214,2.017-0.743,2.656s-1.471,0.918-2.687,0.864c-0.85-0.037-1.34-0.088-1.987-0.193
	c-0.648-0.107-1.252-0.249-1.805-0.416l-0.531,2.418c0.742,0.258,1.505,0.445,2.287,0.559c0.782,0.114,1.648,0.149,2.595,0.172
	c1.959,0.045,3.454-0.533,4.489-1.598c1.035-1.066,1.495-2.572,1.495-4.52V22.348C98.276,21.968,97.305,21.614,96.437,21.393
	 M95.874,27.852c0,1.065-0.206,1.849-0.615,2.351c-0.411,0.502-1.066,0.754-1.964,0.754c-0.518,0-0.939-0.076-1.267-0.229
	c-0.328-0.152-0.582-0.376-0.765-0.673c-0.184-0.298-0.309-0.658-0.376-1.085c-0.069-0.426-0.104-0.92-0.104-1.483v-0.821
	c0-1.217,0.232-2.086,0.696-2.603s1.198-0.776,2.203-0.776c0.395,0,0.791,0.039,1.187,0.114c0.396,0.076,0.73,0.198,1.004,0.365
	V27.852z"/>
<rect x="3.547" y="3.536" fill="none" width="138.89" height="35.135"/>
<path fill="#8F174F" d="M74.496,33.236V21.39h2.892l0.182,1.279c0.38-0.503,0.871-0.888,1.473-1.153
	c0.601-0.266,1.289-0.4,2.065-0.4c0.639,0,1.364,0.084,1.889,0.251c0.525,0.168,0.978,0.423,1.358,0.765
	c0.38,0.343,0.677,0.772,0.89,1.29c0.214,0.518,0.32,1.126,0.32,1.826v7.988h-3.15V26c0-0.958-0.175-1.64-0.524-2.043
	c-0.351-0.403-0.873-0.603-1.695-0.603c-0.897,0-1.563,0.469-1.962,1.012c-0.42,0.572-0.479,1.72-0.479,2.755v6.114H74.496z"/>
<path fill="#8F174F" d="M36.953,24.042c-0.184-0.045-0.403-0.09-0.662-0.137c-0.26-0.045-0.525-0.067-0.8-0.067
	c-1.004,0-1.73,0.262-2.18,0.786c-0.449,0.525-0.563,1.095-0.563,2.175v6.437h-3.414V21.39h3.049l0.183,1.415
	c0.38-0.517,0.853-0.909,1.415-1.176c0.563-0.266,1.24-0.399,2.031-0.399c0.305,0,0.575,0.019,0.811,0.057s0.482,0.103,0.742,0.194
	L36.953,24.042z"/>
<path fill="#8F174F" d="M27.229,21.39v11.847h-2.891l-0.182-1.278c-0.38,0.502-0.871,0.887-1.473,1.152
	c-0.601,0.266-1.29,0.4-2.065,0.4c-0.64,0-1.364-0.084-1.89-0.252c-0.524-0.168-0.977-0.422-1.357-0.765
	c-0.38-0.343-0.677-0.772-0.891-1.29c-0.213-0.517-0.319-1.126-0.319-1.826V21.39h3.149v7.237c0,0.957,0.176,1.639,0.525,2.043
	c0.35,0.402,0.873,0.602,1.695,0.602c0.897,0,1.563-0.469,1.962-1.012c0.42-0.572,0.479-1.721,0.479-2.754V21.39H27.229z"/>
<path fill="#8F174F" d="M70.702,16.608c0.637,0,1.124,0.141,1.409,0.407c0.285,0.267,0.428,0.678,0.428,1.165
	c0,0.487-0.143,0.898-0.428,1.164c-0.285,0.266-0.772,0.391-1.409,0.391c-0.635,0-1.14-0.125-1.425-0.391
	c-0.285-0.266-0.428-0.677-0.428-1.164c0-0.487,0.143-0.898,0.428-1.165C69.562,16.749,70.067,16.608,70.702,16.608 M69.122,21.39
	h3.215v11.847h-3.215V21.39z"/>
<polygon fill="#8F174F" points="62.567,28.667 64.31,21.39 67.475,21.39 63.982,33.237 61.094,33.237 59.03,26.073 56.992,33.237 
	53.998,33.237 50.426,21.39 53.775,21.39 55.538,28.743 57.479,21.892 60.629,21.892 "/>
<rect x="3.539" y="3.536" fill="none" width="138.898" height="35.135"/>
<path fill="#8F174F" d="M49.469,24.55c-0.175-0.699-0.472-1.301-0.89-1.803c-0.419-0.502-0.979-0.898-1.679-1.187
	c-0.699-0.289-1.835-0.428-2.885-0.428s-2.225,0.178-2.924,0.467c-0.701,0.289-1.26,0.685-1.678,1.187
	c-0.419,0.502-0.72,1.104-0.902,1.803c-0.182,0.7-0.329,1.41-0.329,2.232v0.959c0,0.82,0.132,1.566,0.308,2.266
	c0.175,0.7,0.472,1.305,0.891,1.814c0.418,0.511,0.977,0.91,1.677,1.199s1.894,0.467,2.958,0.467c1.065,0,2.23-0.162,2.938-0.467
	c0.708-0.303,1.267-0.715,1.678-1.231s0.7-1.122,0.867-1.815c0.168-0.691,0.307-1.43,0.307-2.221v-0.959
	C49.805,26.011,49.644,25.251,49.469,24.55 M46.641,27.963c0,1.233-0.193,2.104-0.582,2.614c-0.388,0.509-1.061,0.764-2.02,0.764
	c-0.473,0-0.875-0.053-1.21-0.16c-0.335-0.105-0.613-0.287-0.833-0.547c-0.222-0.259-0.381-0.604-0.479-1.039
	c-0.1-0.434-0.148-0.978-0.148-1.632V26.64c0-1.217,0.201-2.082,0.604-2.592c0.403-0.509,1.092-0.764,2.066-0.764
	c0.974,0,1.65,0.255,2.03,0.764c0.382,0.51,0.571,1.375,0.571,2.592V27.963z"/>
<path fill="#7BCBE2" d="M122.103,3.589c-2.582-0.353-3.893,1.084-5.701,2.405l-6.181,4.854l-0.002,0.001l1.19,0.629
	c0.002,0.002,0.005,0.003,0.008,0.005c1.548,0.761,3.701,0.501,5.167-0.585l2.61-2.074l0.998-0.794l4.974-3.952L122.103,3.589z"/>
<rect x="3.547" y="3.536" fill="none" width="138.89" height="35.135"/>
<path fill="#089BC9" d="M110.221,10.848l1.188,0.631c0.003,0.001,0.005,0.003,0.008,0.004c1.548,0.762,3.702,0.502,5.168-0.585
	l2.609-2.073l0.999-0.794L110.221,10.848z"/>
<path fill="#8F174F" d="M132.658,6.587l-3.318-0.597c0,0-2.31-0.549-4.24,0.946c0,0-1.425,1.06-2.476,1.88l-2.337,1.851l-5.406,4.3
	l-0.045,0.036l1.632,0.863c1.549,0.765,3.707,0.506,5.175-0.582l4.834-3.829l3.898-3.07L132.658,6.587z"/>
<path fill="#C8C4C3" d="M122.625,8.816c1.049-0.82,2.474-1.88,2.474-1.88c0.365-0.283,0.744-0.492,1.118-0.646l-6.023,1.741
	l-0.999,0.793l-2.608,2.074c-1.466,1.087-3.62,1.347-5.168,0.585c1.32,0.791,3.37,0.973,6.458,0.052l2.109-0.628l0.303-0.24
	L122.625,8.816z"/>
<path fill="#C8C4C3" d="M131.121,10.66c0.995-0.779,1.746-1.343,2.493-1.678l-6.742,2.162l-0.396,0.312l-4.834,3.828
	c-1.468,1.088-3.626,1.348-5.175,0.582c2.38,1.307,6.045,0.346,9.127-0.75l0.184-0.149C125.777,14.967,130.937,10.793,131.121,10.66
	"/>
<path fill="#C8C4C3" d="M139.049,15.003c-2.706-0.786-3.518-0.289-6.706,0.67h-0.001l-0.266,0.221v-0.001l-0.003,0.003l0.003-0.002
	l-0.008,0.005l-5.138,4.074c-1.464,1.085-3.752,1.294-5.3,0.536c1.91,0.996,3.885,0.752,7.264-0.302l13.542-4.157L139.049,15.003z"
	/>
<path fill="#8F174F" d="M139.947,9.385l-3.582-0.652c-2.146-0.398-3.161,0.296-5.245,1.927c-0.184,0.134-5.343,4.307-5.343,4.307
	l-5.792,4.673l1.631,0.863c1.55,0.766,3.848,0.558,5.315-0.53l5.138-4.074l0.007-0.005l-0.003,0.002L139.947,9.385z"/>
<polygon fill="#B4175E" points="119.985,10.907 131.44,7.545 126.871,11.144 114.835,15.003 "/>
<polygon fill="#B4175E" points="125.593,15.115 138.067,10.94 132.343,15.673 119.986,19.64 "/>
</svg>
