<?xml version="1.0" encoding="UTF-8"?>
<svg width="75px" height="75px" viewBox="0 0 75 75" version="1.1" xmlns="http://www.w3.org/2000/svg" xmlns:xlink="http://www.w3.org/1999/xlink">
    <!-- Generator: Sketch 43.1 (39012) - http://www.bohemiancoding.com/sketch -->
    <title>Group 3</title>
    <desc>Created with Sketch.</desc>
    <defs></defs>
    <g id="Page-1" stroke="none" stroke-width="1" fill="none" fill-rule="evenodd">
        <g id="Text-Styles-Copy" transform="translate(-450.000000, -804.000000)">
            <g id="Group-3" transform="translate(450.000000, 804.000000)">
                <path d="M14,30 L19,30 L19,25 L14,25 L14,30 Z M11,33 L22,33 L22,22 L11,22 L11,33 Z M42,30 L47,30 L47,25 L42,25 L42,30 Z M39,33 L50,33 L50,22 L39,22 L39,33 Z M42,44 L47,44 L47,39 L42,39 L42,44 Z M39,47 L50,47 L50,36 L39,36 L39,47 Z M28,30 L33,30 L33,25 L28,25 L28,30 Z M25,33 L36,33 L36,22 L25,22 L25,33 Z M56,44 L61,44 L61,39 L56,39 L56,44 Z M53,47 L64,47 L64,36 L53,36 L53,47 Z M42,58 L47,58 L47,53 L42,53 L42,58 Z M39,61 L50,61 L50,50 L39,50 L39,61 Z M28,58 L33,58 L33,53 L28,53 L28,58 Z M25,61 L36,61 L36,50 L25,50 L25,61 Z M28,44 L33,44 L33,39 L28,39 L28,44 Z M25,47 L36,47 L36,36 L25,36 L25,47 Z M72,15 L3,15 L3,7 L15,7 C14.879,8 12.794,8.035 12,8 L12,11 L13,11 C14.502,11 17.758,9 18,7 L20,7 L21.788,7 L32,7 C31.879,8 29.794,8.035 29,8 L29,11 L30,11 C31.502,11 34.758,9 35,7 L37.021,7 L38.788,7 L49.021,7 C48.9,8 46.815,8.035 46.021,8 L46.021,11 L47.021,11 C48.523,11 51.779,9 52.021,7 L53,7 L55.809,7 L65,7 C64.879,8 62.794,8.035 62,8 L62,11 L63,11 C64.502,11 67.758,9 68,7 L71.788,7 L72,7 L72,15 Z M3,66 L72,66 L72,18 L3,18 L3,66 Z M7,72 L67,72 L67,69 L7,69 L7,72 Z M10.292,4 C10.281,3.906 10.552,3.465 10.741,3.292 C11.812,2.221 13.677,2.282 14.748,3.353 C14.921,3.525 15.156,3.906 15.18,4 L10.292,4 L10.292,4 L10.292,4 Z M27.292,4 C27.281,3.906 27.552,3.465 27.741,3.292 C28.812,2.221 30.677,2.282 31.748,3.353 C31.921,3.525 32.156,3.906 32.18,4 L27.292,4 L27.292,4 L27.292,4 Z M44.313,4 C44.302,3.906 44.572,3.465 44.762,3.292 C45.833,2.221 47.698,2.282 48.768,3.353 C48.941,3.525 49.177,3.906 49.2,4 L44.313,4 L44.313,4 L44.313,4 Z M60.292,4 C60.281,3.906 60.552,3.465 60.741,3.292 C61.812,2.221 63.677,2.282 64.748,3.353 C64.921,3.525 65.156,3.906 65.18,4 L60.292,4 L60.292,4 L60.292,4 Z M71.979,4 L68.15,4 C67.908,3 67.425,2.014 66.699,1.289 C65.629,0.218 64.52,0 63,0 C61.48,0 59.757,0.248 58.686,1.319 C57.961,2.044 57.495,3 57.236,4 L56,4 L52.17,4 C51.929,3 51.445,2.014 50.72,1.289 C49.649,0.218 48.54,0 47.021,0 C45.501,0 43.778,0.248 42.707,1.319 C41.982,2.044 41.515,3 41.256,4 L38.979,4 L35.15,4 C34.908,3 34.425,2.014 33.699,1.289 C32.629,0.218 31.52,0 30,0 C28.48,0 26.757,0.248 25.686,1.319 C24.961,2.044 24.495,3 24.236,4 L21.979,4 L18.15,4 C17.908,3 17.425,2.014 16.699,1.289 C15.629,0.218 14.52,0 13,0 C11.48,0 9.757,0.248 8.686,1.319 C7.961,2.044 7.495,3 7.236,4 L0,4 L0,69 L4,69 L4,75 L70,75 L70,69 L75,69 L75,4 L71.979,4 Z M14,58 L19,58 L19,53 L14,53 L14,58 Z M11,61 L22,61 L22,50 L11,50 L11,61 Z M56,30 L61,30 L61,25 L56,25 L56,30 Z M53,33 L64,33 L64,22 L53,22 L53,33 Z M14,44 L19,44 L19,39 L14,39 L14,44 Z M11,47 L22,47 L22,36 L11,36 L11,47 Z" id="Page-1" fill="#000000"></path>
                <rect id="Rectangle-10-Copy-4" fill="#FFED00" x="11" y="22" width="11" height="11"></rect>
                <rect id="Rectangle-10-Copy-8" fill="#FFED00" x="11" y="36" width="11" height="11"></rect>
                <rect id="Rectangle-10-Copy-5" fill="#FFED00" x="25" y="22" width="11" height="11"></rect>
                <rect id="Rectangle-10-Copy-6" fill="#FFED00" x="39" y="22" width="11" height="11"></rect>
                <rect id="Rectangle-10-Copy-7" fill="#FFED00" x="53" y="22" width="11" height="11"></rect>
                <polygon id="Page-1-Copy" fill="#000000" points="21.7199205 35 16.1165134 40.6041569 14.4286679 38.9155616 12 41.3442295 16.1352589 45.4300003 24.1485884 37.4286679"></polygon>
            </g>
        </g>
    </g>
</svg>