<?xml version="1.0" encoding="UTF-8"?>
<svg width="39px" height="48px" viewBox="0 0 39 48" version="1.1" xmlns="http://www.w3.org/2000/svg" xmlns:xlink="http://www.w3.org/1999/xlink">
    <!-- Generator: Sketch 43.1 (39012) - http://www.bohemiancoding.com/sketch -->
    <title>Page 1</title>
    <desc>Created with Sketch.</desc>
    <defs></defs>
    <g id="Page-1" stroke="none" stroke-width="1" fill="none" fill-rule="evenodd">
        <g id="Text-Styles-Copy" transform="translate(-399.000000, -1226.000000)" fill="#000000">
            <path d="M434,1265 L432,1265 L432,1239.5 C432,1239.27 431.907,1239.062 431.756,1238.911 L425.09,1232.245 C424.938,1232.093 424.73,1232 424.5,1232 L408,1232 L408,1230 L434,1230 L434,1265 Z M423,1241 L423,1236 L428,1241 L423,1241 Z M428,1270 L403,1270 L403,1236 L419,1236 L419,1245 L428,1245 L428,1270 Z M437.167,1226 L437,1226 L405,1226 L404.833,1226 L404,1226 L404,1226.833 L404,1227 L404,1232 L400,1232 L399.833,1232 L399,1232 L399,1232.833 L399,1233 L399,1273 L399,1273.167 L399,1274 L399.833,1274 L400,1274 L431,1274 L431.167,1274 L432,1274 L432,1273.167 L432,1273 L432,1269 L437,1269 L437.167,1269 L438,1269 L438,1268.167 L438,1268 L438,1227 L438,1226.833 L438,1226 L437.167,1226 Z" id="Page-1"></path>
        </g>
    </g>
</svg>