<?xml version="1.0" encoding="UTF-8"?>
<svg width="44px" height="80px" viewBox="0 0 44 80" version="1.1" xmlns="http://www.w3.org/2000/svg" xmlns:xlink="http://www.w3.org/1999/xlink">
    <!-- Generator: Sketch 43.1 (39012) - http://www.bohemiancoding.com/sketch -->
    <title>Fill 1</title>
    <desc>Created with Sketch.</desc>
    <defs></defs>
    <g id="Page-1" stroke="none" stroke-width="1" fill="none" fill-rule="evenodd">
        <g id="Text-Styles-Copy" transform="translate(-560.000000, -1728.000000)" fill="#E0E1E2">
            <path d="M601.69953,1728.01667 L591.305688,1728 C579.629387,1728 572.084622,1735.72726 572.084622,1747.68772 L572.084622,1756.76577 L561.634116,1756.76577 C560.731644,1756.76577 560,1757.49658 560,1758.39738 L560,1771.54947 C560,1772.45111 560.732477,1773.18109 561.634116,1773.18109 L572.083789,1773.18109 L572.083789,1806.36838 C572.083789,1807.27002 572.815433,1808 573.717905,1808 L587.351645,1808 C588.25495,1808 588.985761,1807.26919 588.985761,1806.36838 L588.985761,1773.18109 L601.204546,1773.18109 C602.107017,1773.18109 602.838661,1772.45111 602.838661,1771.54947 L602.843661,1758.39738 C602.843661,1757.9649 602.671167,1757.55074 602.364509,1757.24409 C602.057852,1756.93743 601.642032,1756.76577 601.208712,1756.76577 L588.987427,1756.76577 L588.987427,1749.07017 C588.987427,1745.37196 589.8699,1743.49452 594.695582,1743.49452 L601.697864,1743.49202 C602.600335,1743.49202 603.331146,1742.76121 603.331146,1741.8604 L603.331146,1729.64828 C603.331146,1728.74831 602.601169,1728.01833 601.69953,1728.01667" id="Fill-1"></path>
        </g>
    </g>
</svg>