<!-- Generator: Adobe Illustrator 21.0.2, SVG Export Plug-In  -->
<svg version="1.1"
	 xmlns="http://www.w3.org/2000/svg" xmlns:xlink="http://www.w3.org/1999/xlink" xmlns:a="http://ns.adobe.com/AdobeSVGViewerExtensions/3.0/"
	 x="0px" y="0px" width="40px" height="40px" viewBox="0 0 40 40" style="enable-background:new 0 0 40 40;" xml:space="preserve">
<style type="text/css">
	.st0{fill:none;}
	.st1{fill:none;stroke:#000000;stroke-width:3;}
	.st2{enable-background:new    ;}
</style>
<defs>
</defs>
<rect id="Rectangle-4_1_" class="st0" width="40" height="40"/>
<polygon id="Rectangle-6-Copy_1_" class="st1" points="15,28 25,28 25,36 15,36 "/>
<path id="Path-3_1_" class="st1" d="M9,36h22"/>
<g class="st2">
	<path d="M23.6,13.3c0.9,0.8,1,1.7,1,2.4c0,0.7-0.1,1.6-0.9,2.2c-0.3,0.3-1.1,0.8-2.5,0.8h-1.4v0.9h2.7v1.5h-2.7v1.3h-2.3v-1.3h-1.1
		v-1.5h1.1v-0.9h-1.1v-1.7h1.1v-4.6H21C21.8,12.5,22.8,12.6,23.6,13.3z M19.8,17.1h0.8c0.3,0,0.9,0,1.2-0.4c0.2-0.2,0.4-0.6,0.4-1
		c0-0.4-0.2-0.8-0.4-1c-0.3-0.3-0.8-0.4-1.3-0.4h-0.8V17.1z"/>
</g>
<rect id="Rectangle-6_1_" x="2.5" y="6.5" class="st1" width="35" height="21"/>
</svg>