<?xml version="1.0" encoding="UTF-8"?>
<svg width="64px" height="80px" viewBox="0 0 64 80" version="1.1" xmlns="http://www.w3.org/2000/svg" xmlns:xlink="http://www.w3.org/1999/xlink">
    <!-- Generator: Sketch 43.1 (39012) - http://www.bohemiancoding.com/sketch -->
    <title>Fill 8</title>
    <desc>Created with Sketch.</desc>
    <defs></defs>
    <g id="Page-1" stroke="none" stroke-width="1" fill="none" fill-rule="evenodd">
        <g id="Text-Styles-Copy" transform="translate(-396.000000, -1728.000000)" fill="#E0E1E2">
            <path d="M453.465503,1778.68028 C457.47835,1773.48792 459.898776,1767.02648 459.996903,1759.99646 C460.240222,1742.56862 446.115565,1728.24076 428.442508,1728.00076 L428.434398,1728.00076 C410.639682,1727.88076 396.121659,1742.01263 396,1759.56046 C396,1769.15413 400.341833,1777.75837 407.202853,1783.5514 L428.442508,1808 L453.917988,1778.68028 L453.465503,1778.68028 Z M428.442508,1736.00068 C441.881817,1736.00068 452.77439,1746.74458 452.77439,1760.00046 C452.77439,1773.25633 441.881817,1784.00023 428.442508,1784.00023 C415.003199,1784.00023 404.110627,1773.25633 404.110627,1760.00046 C404.110627,1746.74458 415.003199,1736.00068 428.442508,1736.00068 L428.442508,1736.00068 Z" id="Fill-8"></path>
        </g>
    </g>
</svg>