<?xml version="1.0" encoding="UTF-8"?>
<svg width="80px" height="54px" viewBox="0 0 80 54" version="1.1" xmlns="http://www.w3.org/2000/svg" xmlns:xlink="http://www.w3.org/1999/xlink">
    <!-- Generator: Sketch 43.1 (39012) - http://www.bohemiancoding.com/sketch -->
    <title>Page 1</title>
    <desc>Created with Sketch.</desc>
    <defs></defs>
    <g id="Page-1" stroke="none" stroke-width="1" fill="none" fill-rule="evenodd">
        <g id="Text-Styles-Copy" transform="translate(-850.000000, -1741.000000)" fill="#E0E1E2">
            <path d="M856.666667,1788.25 L856.666667,1751.72913 L888.233333,1774.237 C888.773333,1774.57788 889.386667,1774.75 890,1774.75 C890.613333,1774.75 891.226667,1774.57788 891.766667,1774.237 L923.333333,1751.72575 L923.336667,1788.25 L856.666667,1788.25 Z M917.043333,1747.75 L890,1767.3925 L862.956667,1747.75 L917.043333,1747.75 Z M923.333333,1741 L856.666667,1741 L850,1741 L850,1747.75 L850,1788.25 L850,1795 L856.666667,1795 L923.333333,1795 L930,1795 L930,1788.25 L930,1747.75 L930,1741 L923.333333,1741 Z" id="Page-1"></path>
        </g>
    </g>
</svg>