<svg width="16px" height="20px" viewBox="0 0 16 20" version="1.1" xmlns="http://www.w3.org/2000/svg" xmlns:xlink="http://www.w3.org/1999/xlink">
                <!-- Generator: Sketch 43.1 (39012) - http://www.bohemiancoding.com/sketch-->
                <defs></defs>
                <g id="Page-1" stroke="none" stroke-width="1" fill="none" fill-rule="evenodd">
                  <g id="Text-Styles-Copy" transform="translate(-303.000000, -397.000000)" fill="#000000">
                    <path id="Fill-8" d="M317.170422,409.67019 C318.15995,408.372088 318.756803,406.756713 318.781,404.99919 C318.841,400.64219 315.358,397.06019 311,397.00019 L310.998,397.00019 C306.61,396.97019 303.03,400.50319 303,404.89019 C303,407.28863 304.070653,409.439711 305.762512,410.887981 L311,417.00019 L317.282,409.67019 L317.170422,409.67019 Z M311,399.00019 C314.314,399.00019 317,401.68619 317,405.00019 C317,408.31419 314.314,411.00019 311,411.00019 C307.686,411.00019 305,408.31419 305,405.00019 C305,401.68619 307.686,399.00019 311,399.00019 L311,399.00019 Z"></path>
                  </g>
                </g>
              </svg>