<?xml version="1.0" encoding="UTF-8"?>
<svg width="80px" height="68px" viewBox="0 0 80 68" version="1.1" xmlns="http://www.w3.org/2000/svg" xmlns:xlink="http://www.w3.org/1999/xlink">
    <!-- Generator: Sketch 43.1 (39012) - http://www.bohemiancoding.com/sketch -->
    <title>Page 1</title>
    <desc>Created with Sketch.</desc>
    <defs></defs>
    <g id="Page-1" stroke="none" stroke-width="1" fill="none" fill-rule="evenodd">
        <g id="Text-Styles-Copy" transform="translate(-696.000000, -1735.000000)" fill="#E0E1E2">
            <path d="M761.452175,1748.53121 L727.34165,1779.36922 L726.01338,1793.56341 L719.300487,1772.9419 L759.137164,1747.75835 C761.125933,1746.54986 762.949355,1747.19967 761.452175,1748.53121 M770.59882,1735.44458 L699.734736,1762.83167 C694.898105,1764.77606 694.926751,1767.47906 698.853082,1768.68443 L716.526838,1774.21169 L723.289157,1794.98623 C724.111292,1797.25998 723.706087,1798.16182 726.088929,1798.16182 C727.927935,1798.16182 728.743688,1797.32172 729.767981,1796.3191 C730.419277,1795.68042 734.286385,1791.9132 738.604265,1787.70664 L756.988243,1801.31678 C760.371184,1803.1868 762.813693,1802.21802 763.656163,1798.16865 L775.723844,1741.18735 C776.959347,1736.22397 773.835411,1733.97263 770.59882,1735.44458" id="Page-1"></path>
        </g>
    </g>
</svg>