<?xml version="1.0" encoding="UTF-8"?>
<svg width="48px" height="80px" viewBox="0 0 48 80" version="1.1" xmlns="http://www.w3.org/2000/svg" xmlns:xlink="http://www.w3.org/1999/xlink">
    <!-- Generator: Sketch 43.1 (39012) - http://www.bohemiancoding.com/sketch -->
    <title>Combined Shape</title>
    <desc>Created with Sketch.</desc>
    <defs></defs>
    <g id="Page-1" stroke="none" stroke-width="1" fill="none" fill-rule="evenodd">
        <g id="Text-Styles-Copy" transform="translate(-260.000000, -1728.000000)" fill="#E0E1E2">
            <path d="M287.280906,1758.05339 L278.34337,1766.99092 L275.514236,1764.16179 L284.45139,1755.22463 L279.156331,1755.57716 L278.891166,1751.58554 L291.07108,1751.43493 L290.919759,1763.61413 L286.927434,1763.34826 L287.280906,1758.05339 Z M260,1808 L260,1728 L308,1728 L308,1808 L260,1808 Z M266,1802 L302,1802 L302,1735 L266,1735 L266,1802 Z M288,1794 C288,1796.209 286.209,1798 284,1798 C281.791,1798 280,1796.209 280,1794 C280,1791.791 281.791,1790 284,1790 C286.209,1790 288,1791.791 288,1794 Z" id="Combined-Shape"></path>
        </g>
    </g>
</svg>