<?xml version="1.0" encoding="UTF-8"?>
<svg width="24px" height="21px" viewBox="0 0 24 21" version="1.1" xmlns="http://www.w3.org/2000/svg" xmlns:xlink="http://www.w3.org/1999/xlink">
    <!-- Generator: Sketch 44 (41411) - http://www.bohemiancoding.com/sketch -->
    <title>Page 1 Copy</title>
    <desc>Created with Sketch.</desc>
    <defs></defs>
    <g id="menu-desktop" stroke="none" stroke-width="1" fill="none" fill-rule="evenodd">
        <g id="menu7_services-question" transform="translate(-531.000000, -814.000000)" fill="#000000">
            <g id="menu+buttons" transform="translate(30.000000, 779.000000)">
                <g id="Group-11" transform="translate(255.000000, 15.000000)">
                    <g id="Group-9" transform="translate(246.000000, 20.000000)">
                        <path d="M19.6356525,4.05936244 L9.40249504,13.3107666 L9.00401398,17.5690236 L6.99014618,11.3825707 L18.9411493,3.82750515 C19.53778,3.46495819 20.0848064,3.65990177 19.6356525,4.05936244 M22.3796459,0.13337333 L1.12042088,8.34950152 C-0.330568487,8.93281831 -0.321974584,9.74371769 0.855924564,10.1053296 L6.15805147,11.7635077 L8.18674709,17.995869 C8.43338767,18.6779934 8.31182624,18.9485456 9.02667873,18.9485456 C9.57838063,18.9485456 9.82310651,18.6965171 10.1303942,18.3957305 C10.3257831,18.2041265 11.4859156,17.0739614 12.7812796,15.8119933 L18.296473,19.8950327 C19.3113551,20.456041 20.0441078,20.1654067 20.2968488,18.9505939 L23.9171532,1.85620612 C24.2878042,0.367189851 23.3506234,-0.308210832 22.3796459,0.13337333" id="Page-1-Copy"></path>
                    </g>
                </g>
            </g>
        </g>
    </g>
</svg>