<?xml version="1.0" encoding="utf-8"?>
<!-- Generator: Adobe Illustrator 14.0.0, SVG Export Plug-In . SVG Version: 6.00 Build 43363)  -->
<!DOCTYPE svg PUBLIC "-//W3C//DTD SVG 1.1//EN" "http://www.w3.org/Graphics/SVG/1.1/DTD/svg11.dtd">
<svg version="1.1" id="Layer_1" xmlns="http://www.w3.org/2000/svg" xmlns:xlink="http://www.w3.org/1999/xlink" x="0px" y="0px"
	 width="300px" height="127px" viewBox="0 0 300 127" enable-background="new 0 0 300 127" xml:space="preserve">
<g>
	<path fill="#ED1C24" d="M180.053,19.057c-2.254,0.767-4.634,1.333-7.286,1.729l-0.118,0.018v0.843l0.129,0.011
		c2.875,0.208,3.66,1.214,3.66,4.68v8.22c0,6.122,0,7.225-3.542,7.225h-0.354v1.035h12.298v-1.035h-0.358
		c-3.495,0-3.597-1.028-3.597-7.225v-7.199c0-1.736,0.089-3.28,1.159-4.568c1.143-1.356,2.843-2.169,4.55-2.169
		c3.141,0,4.736,2.12,4.736,6.306v7.631c0,6.196-0.098,7.225-3.542,7.225h-0.358v1.035h12.299v-1.035h-0.356
		c-3.486,0-3.597-1.146-3.597-7.225v-7.686c0-5.003-2.096-7.941-7.458-7.941c-3.026,0-5.208,0.813-7.46,2.888
		c-0.045-0.454-0.305-2.623-0.305-2.623l-0.456-0.152L180.053,19.057"/>
	<path fill="#FFFFFF" d="M239.865,85.744c-0.169-0.912,0-1.864-4.946-1.499c-4.948,0.378-65.062,5.341-72.927,5.341
		c-0.988,0-5.211,0.285-4.863,2.152c0.371,1.877,2.801,1.995,3.511,2.093c0.718,0.089,8.184,0.916,10.292,2.79
		c3.27,2.906-0.821,11.073-6.353,15.012c-10.414,7.426-5.035,7.852-2.276,6.133c14.042-8.645,38.715-20.04,73.423-29.117
		C235.728,88.648,240.223,87.622,239.865,85.744"/>
	<path fill="#FCFDFD" d="M162.402,89.668c-0.981,0-5.175,0.283-4.825,2.114c0.354,1.835,2.828,1.947,3.533,2.042
		c0.708,0.094,8.112,0.904,10.161,2.779c3.177,2.91-0.904,10.946-6.374,14.846c-10.162,7.252-4.875,7.66-2.14,5.964
		c13.655-8.399,38.172-19.749,72.542-28.737c0,0,4.478-1.026,4.129-2.852c-0.169-0.903-0.005-1.812-4.902-1.448
		C229.625,84.75,170.191,89.668,162.402,89.668"/>
	<path fill="#FAFAFA" d="M162.809,89.751c-0.97,0-5.128,0.276-4.781,2.071c0.347,1.795,2.854,1.9,3.553,1.991
		c0.699,0.094,8.038,0.896,10.029,2.77c3.086,2.916-0.98,10.813-6.396,14.687c-9.909,7.073-4.712,7.466-2.002,5.791
		c13.266-8.156,37.627-19.456,71.663-28.359c0,0,4.459-1.024,4.12-2.801c-0.167-0.894-0.013-1.755-4.863-1.396
		C229.282,84.876,170.522,89.751,162.809,89.751"/>
	<path fill="#F8F8F9" d="M163.216,89.833c-0.959,0-5.079,0.271-4.737,2.031c0.34,1.753,2.879,1.849,3.571,1.939
		c0.694,0.093,7.967,0.885,9.902,2.763c2.992,2.918-1.066,10.682-6.421,14.52c-9.655,6.899-4.55,7.275-1.862,5.624
		c12.879-7.914,37.079-19.166,70.778-27.983c0,0,4.445-1.021,4.112-2.748c-0.167-0.883-0.018-1.698-4.819-1.345
		C228.936,85.003,170.854,89.833,163.216,89.833"/>
	<path fill="#F6F7F7" d="M163.625,89.915c-0.95,0-5.032,0.265-4.695,1.99c0.331,1.712,2.904,1.799,3.589,1.89
		c0.688,0.093,7.898,0.877,9.771,2.752c2.901,2.921-1.146,10.556-6.443,14.359c-9.398,6.72-4.387,7.083-1.724,5.449
		c12.49-7.665,36.534-18.873,69.897-27.6c0,0,4.429-1.021,4.104-2.697c-0.169-0.878-0.022-1.645-4.778-1.294
		C228.588,85.128,171.187,89.915,163.625,89.915"/>
	<path fill-rule="evenodd" clip-rule="evenodd" fill="#ED1C24" d="M161.283,35.456v-6.26c-0.926,0.53-1.8,0.988-2.648,1.43
		c-3.553,1.848-6.178,3.402-6.178,7.113c0,2.485,1.678,4.361,3.931,4.361C159.541,42.101,161.283,39.688,161.283,35.456
		 M170.435,42.119c-1.091,0.963-2.583,1.509-4.299,1.509c-2.794,0-4.2-0.812-4.938-2.539c-1.58,1.851-3.513,2.539-6.274,2.539
		c-4.258,0-7.134-2.221-7.134-6.038c0-4.121,3.662-6.104,8.634-7.638l0.37-0.113c2.498-0.77,4.438-1.627,4.438-3.756v-1.056
		c0-3.177-1.46-4.845-4.138-4.845c-2.082,0-2.944,0.976-3.201,3.099c-0.132,1.106-0.598,2.431-2.209,2.431
		c-1.335,0-2.196-0.799-2.196-2.034c0-2.783,3.215-4.748,7.989-4.748c5.864,0,8.144,2.343,8.144,7.135v11.738
		c0,3.098,0.516,4.192,1.977,4.192c0.741,0,1.455-0.241,2.185-0.773L170.435,42.119z"/>
	<path fill="#ED1C24" d="M28.411,28.373H15.747l-1.001,2.498c-1.219,3.048-1.969,5.74-1.973,7.202
		c-0.009,2.331,1.646,3.355,4.837,3.786v0.957H5.002v-0.995c3.736-0.217,5.435-4.938,9.52-14.903l8.903-21.712H24.6l11.221,27.562
		c2.339,5.744,3.573,8.944,7.093,9.054v0.995h-15.3v-0.995c2.979-0.16,4.532-0.985,4.54-2.829c0.001-0.972-0.511-2.442-1.343-4.546
		L28.411,28.373 M16.335,26.905H27.83l-5.711-14.444L16.335,26.905z"/>
	<path fill="#ED1C24" d="M65.875,19.743h-8.206v1.035h0.411c3.433,0,3.542,1.138,3.542,7.172v6.874c0,2.155-0.085,3.665-1.212,4.999
		c-1.143,1.36-2.843,2.227-4.55,2.227c-3.145,0-4.735-2.176-4.735-6.357V19.743h-8.398v1.035h0.409c3.435,0,3.544,1.138,3.544,7.172
		v7.542c0,5.229,2.225,8.135,7.68,8.135c3.072,0,5.128-0.92,7.263-2.854v2.6l1.284-0.184c2.271-0.325,4.416-0.634,6.507-0.866
		l0.122-0.015v-0.849l-0.127-0.009c-2.665-0.205-3.393-1.198-3.393-4.627v-17.08H65.875"/>
	<path fill="#ED1C24" d="M74.777,25.287c0,4.23,3.477,5.637,7.179,7.698c2.49,1.402,4.267,2.896,4.267,5.242
		c0,2.322-1.589,3.982-3.976,3.982c-3.526,0-5.617-1.828-7.017-7.039l-0.027-0.104h-0.732v8.182h0.699l0.04-0.059
		c0.538-0.756,0.99-1.079,1.511-1.079c0.242,0,0.614,0.171,1.09,0.386c0.992,0.45,2.607,1.131,4.759,1.131
		c4.554,0,7.724-2.995,7.724-7.128c0-2.003-0.779-3.555-2.096-4.877c-1.197-1.204-3.053-2.262-5.135-3.369
		c-2.93-1.604-4.868-2.614-4.868-4.914c0-1.929,1.573-3.103,3.607-3.103c2.861,0,4.983,2.078,5.822,6.009l0.025,0.109h0.739v-7.045
		h-0.719l-0.038,0.084c-0.249,0.601-0.531,0.834-1.008,0.834c-0.238,0-0.598-0.158-1.056-0.358c-0.904-0.396-2.307-0.94-3.983-0.94
		C77.698,18.93,74.777,21.598,74.777,25.287"/>
	<path fill="#ED1C24" d="M109.444,41.714c-1.221,1.27-2.934,1.914-5.112,1.914c-4.325,0-6.365-1.963-6.365-5.781
		c0-3.579,0.207-16.741,0.207-16.741h-2.97v-1.297l0.118-0.019c3.128-0.522,4.843-2.303,6.118-6.232l0.029-0.096h0.97h0.138
		l-0.054,6.281h5.973v1.362h-5.975l-0.107,15.151v0.648c0,3.227,0.91,5.035,3.542,5.035c1.101,0,1.962-0.323,2.747-1.077
		L109.444,41.714"/>
	<path fill="#ED1C24" d="M119.041,19.057c-2.249,0.767-4.63,1.333-7.286,1.729l-0.118,0.018v0.843l0.129,0.011
		c2.875,0.208,3.662,1.214,3.662,4.68v8.22c0,6.122,0,7.225-3.542,7.225h-0.358v1.035h12.897v-1.035h-0.465
		c-2.085,0-2.999-0.329-3.491-1.254c-0.551-1.035-0.594-2.972-0.594-5.809v-4.658c0-5.422,2.056-8.955,3.977-8.955
		c0.928,0,1.375,0.566,1.849,1.288c0.507,0.767,1.081,1.635,2.32,1.635c1.282,0,2.143-0.815,2.143-2.036
		c0-1.882-1.651-3.063-4.092-3.063c-2.583,0-4.792,1.348-6.305,4.41c-0.013-1.719-0.083-2.826-0.216-4.059l-0.009-0.087
		l-0.454-0.152L119.041,19.057"/>
	<path fill="#ED1C24" d="M134.969,10.163c0,1.523,1.106,2.63,2.632,2.63c1.547,0,2.63-1.082,2.63-2.63
		c0-1.399-1.23-2.631-2.63-2.631C136.199,7.532,134.969,8.764,134.969,10.163"/>
	<path fill="#ED1C24" d="M139.727,19.034c-2.419,0.682-4.944,1.23-7.943,1.733l-0.114,0.019v0.843l0.129,0.009
		c2.874,0.209,3.66,1.215,3.66,4.678v8.239c0,6.122,0,7.227-3.542,7.227h-0.357v1.035h12.299v-1.035h-0.354
		c-3.5,0-3.599-1.028-3.599-7.227V18.985L139.727,19.034"/>
</g>
<g>
	<path fill="#F5F5F6" d="M164.033,89.998c-0.941,0-4.984,0.262-4.655,1.951c0.325,1.666,2.934,1.747,3.609,1.837
		c0.683,0.092,7.825,0.866,9.642,2.744c2.811,2.923-1.226,10.424-6.468,14.19c-9.145,6.549-4.224,6.893-1.584,5.284
		c12.104-7.422,35.989-18.582,69.016-27.22c0,0,4.411-1.021,4.096-2.648c-0.169-0.867-0.029-1.59-4.737-1.243
		C228.243,85.254,171.521,89.998,164.033,89.998"/>
	<path fill="#F3F4F4" d="M164.442,90.082c-0.932,0-4.938,0.252-4.614,1.907c0.316,1.624,2.958,1.696,3.629,1.787
		c0.676,0.091,7.755,0.857,9.511,2.734c2.719,2.926-1.308,10.294-6.492,14.03c-8.892,6.371-4.063,6.697-1.448,5.11
		c11.715-7.176,35.447-18.289,68.137-26.841c0,0,4.398-1.021,4.089-2.598c-0.167-0.855-0.034-1.533-4.694-1.188
		C227.898,85.379,171.852,90.082,164.442,90.082"/>
	<path fill="#F2F3F3" d="M164.849,90.165c-0.923,0-4.89,0.246-4.572,1.866c0.309,1.582,2.984,1.649,3.649,1.736
		c0.668,0.089,7.688,0.845,9.378,2.723c2.634,2.927-1.384,10.165-6.514,13.869c-8.634,6.192-3.893,6.513-1.308,4.939
		c11.344-6.903,34.902-17.996,67.256-26.463c0,0,4.383-1.018,4.082-2.543c-0.167-0.849-0.043-1.479-4.654-1.141
		C227.553,85.504,172.182,90.165,164.849,90.165"/>
	<path fill="#F1F1F2" d="M165.26,90.247c-0.914,0-4.845,0.242-4.532,1.826c0.301,1.54,3.01,1.598,3.671,1.686
		c0.66,0.087,7.615,0.835,9.246,2.714c2.545,2.932-1.466,10.036-6.538,13.707c-8.379,6.017-3.729,6.319-1.17,4.767
		c10.963-6.648,34.357-17.704,66.377-26.081c0,0,4.363-1.018,4.069-2.496c-0.166-0.836-0.045-1.423-4.609-1.087
		C227.208,85.632,172.515,90.247,165.26,90.247"/>
	<path fill="#EFF0F0" d="M165.667,90.331c-0.903,0-4.794,0.234-4.49,1.783c0.296,1.497,3.041,1.548,3.691,1.634
		c0.652,0.089,7.544,0.828,9.119,2.708c2.449,2.93-1.54,9.914-6.561,13.538c-8.116,5.862-3.569,6.133-1.032,4.6
		c10.576-6.397,33.809-17.415,65.494-25.7c0,0,4.349-1.017,4.062-2.444c-0.167-0.83-0.054-1.37-4.568-1.036
		C226.863,85.759,172.847,90.331,165.667,90.331"/>
	<path fill="#EEEEEF" d="M166.075,90.412c-0.896,0-4.75,0.231-4.449,1.744c0.289,1.457,3.064,1.497,3.709,1.584
		c0.646,0.086,7.473,0.817,8.988,2.696c2.36,2.935-1.618,9.785-6.583,13.376c-7.858,5.686-3.404,5.942-0.896,4.429
		c10.192-6.146,33.268-17.122,64.615-25.325c0,0,4.331-1.011,4.053-2.389c-0.166-0.823-0.058-1.313-4.525-0.985
		C226.518,85.882,173.18,90.412,166.075,90.412"/>
	<path fill="#EDEDEE" d="M166.484,90.496c-0.886,0-4.703,0.226-4.409,1.7c0.283,1.417,3.094,1.448,3.729,1.533
		c0.641,0.084,7.406,0.811,8.857,2.688c2.272,2.939-1.696,9.656-6.604,13.213c-7.604,5.512-3.243,5.751-0.758,4.258
		c9.81-5.896,32.723-16.828,63.734-24.944c0,0,4.316-1.013,4.047-2.339c-0.167-0.813-0.067-1.259-4.485-0.934
		C226.172,86.01,173.512,90.496,166.484,90.496"/>
	<path fill="#EBECED" d="M166.891,90.578c-0.874,0-4.654,0.22-4.363,1.662c0.272,1.373,3.117,1.396,3.748,1.48
		c0.634,0.085,7.333,0.797,8.727,2.679c2.18,2.939-1.776,9.529-6.63,13.052c-7.348,5.335-3.075,5.557-0.618,4.086
		c9.424-5.649,32.176-16.54,62.855-24.567c0,0,4.302-1.01,4.036-2.288c-0.165-0.803-0.072-1.203-4.441-0.88
		C225.827,86.135,173.844,90.578,166.891,90.578"/>
	<path fill="#EAEBEB" d="M167.299,90.661c-0.864,0-4.604,0.213-4.323,1.62c0.267,1.33,3.143,1.347,3.768,1.43
		c0.628,0.084,7.262,0.789,8.596,2.671c2.091,2.946-1.854,9.398-6.65,12.886c-7.093,5.159-2.914,5.37-0.481,3.917
		c9.039-5.399,31.631-16.245,61.974-24.186c0,0,4.283-1.01,4.029-2.237c-0.165-0.792-0.078-1.148-4.399-0.83
		C225.482,86.262,174.177,90.661,167.299,90.661"/>
	<path fill="#E9E9EA" d="M167.708,90.743c-0.855,0-4.559,0.211-4.281,1.58c0.258,1.286,3.17,1.294,3.788,1.379
		c0.621,0.082,7.189,0.781,8.465,2.661c1.998,2.948-1.937,9.268-6.674,12.723c-6.841,4.984-2.754,5.179-0.342,3.746
		c8.652-5.15,31.083-15.954,61.091-23.808c0,0,4.265-1.006,4.018-2.187c-0.164-0.783-0.082-1.092-4.358-0.777
		C225.137,86.387,174.509,90.743,167.708,90.743"/>
	<path fill="#E7E8E9" d="M168.115,90.827c-0.847,0-4.512,0.199-4.242,1.536c0.254,1.246,3.199,1.246,3.808,1.326
		c0.614,0.084,7.121,0.773,8.336,2.656c1.907,2.951-2.017,9.139-6.696,12.559c-6.585,4.811-2.59,4.986-0.205,3.573
		c8.267-4.9,30.541-15.66,60.211-23.424c0,0,4.251-1.008,4.011-2.138c-0.166-0.774-0.091-1.036-4.314-0.727
		C224.792,86.513,174.842,90.827,168.115,90.827"/>
	<path fill="#E6E7E8" d="M168.524,90.91c-0.834,0-4.463,0.194-4.2,1.497c0.247,1.202,3.224,1.195,3.829,1.275
		c0.605,0.081,7.048,0.763,8.203,2.645c1.817,2.957-2.096,9.01-6.719,12.396c-6.332,4.634-2.427,4.796-0.065,3.402
		c7.878-4.653,29.996-15.367,59.329-23.044c0,0,4.234-1.007,4.003-2.085c-0.163-0.767-0.094-0.983-4.274-0.678
		C224.447,86.638,175.172,90.91,168.524,90.91"/>
	<path fill="#E4E5E6" d="M168.933,90.992c-0.827,0-4.416,0.19-4.158,1.457c0.238,1.16,3.25,1.146,3.848,1.226
		c0.601,0.08,6.979,0.752,8.074,2.634c1.724,2.959-2.176,8.879-6.745,12.232c-6.076,4.458-2.26,4.606,0.074,3.231
		c7.492-4.408,29.449-15.078,58.448-22.664c0,0,4.216-1.005,3.995-2.034c-0.164-0.76-0.102-0.927-4.231-0.625
		C224.1,86.765,175.505,90.992,168.933,90.992"/>
	<path fill="#E3E4E5" d="M169.341,91.073c-0.817,0-4.373,0.186-4.116,1.417c0.23,1.119,3.275,1.094,3.867,1.174
		c0.592,0.078,6.906,0.745,7.942,2.627c1.633,2.961-2.254,8.75-6.765,12.068c-5.822,4.281-2.1,4.414,0.209,3.062
		c7.104-4.162,28.906-14.785,57.569-22.287c0,0,4.2-1.003,3.987-1.983c-0.162-0.749-0.107-0.87-4.188-0.574
		C223.756,86.893,175.837,91.073,169.341,91.073"/>
	<path fill="#E1E2E4" d="M169.75,91.157c-0.81,0-4.323,0.178-4.076,1.373c0.225,1.079,3.304,1.047,3.887,1.123
		c0.588,0.08,6.833,0.737,7.813,2.617c1.542,2.967-2.334,8.623-6.79,11.907c-5.566,4.105-1.935,4.222,0.351,2.891
		c6.717-3.919,28.359-14.494,56.686-21.905c0,0,4.182-1.003,3.979-1.933c-0.162-0.74-0.113-0.818-4.147-0.521
		C223.41,87.018,176.169,91.157,169.75,91.157"/>
	<path fill="#E0E1E2" d="M170.157,91.241c-0.799,0-4.274,0.17-4.034,1.331c0.218,1.037,3.33,0.995,3.909,1.073
		c0.579,0.078,6.763,0.727,7.682,2.609c1.448,2.968-2.416,8.49-6.813,11.741c-5.313,3.93-1.773,4.031,0.489,2.718
		c6.327-3.671,27.814-14.2,55.805-21.525c0,0,4.167-0.999,3.969-1.882c-0.162-0.729-0.118-0.76-4.104-0.469
		C223.064,87.143,176.502,91.241,170.157,91.241"/>
	<path fill="#DFE0E1" d="M170.565,91.324c-0.788,0-4.23,0.167-3.993,1.29c0.209,0.993,3.355,0.944,3.927,1.021
		c0.574,0.08,6.692,0.72,7.551,2.6c1.359,2.974-2.496,8.361-6.835,11.58c-5.061,3.751-1.609,3.839,0.625,2.549
		c5.94-3.43,27.271-13.909,54.926-21.146c0,0,4.151-0.999,3.963-1.831c-0.163-0.723-0.125-0.708-4.065-0.417
		C222.721,87.269,176.833,91.324,170.565,91.324"/>
	<path fill="#DDDFE0" d="M170.974,91.404c-0.779,0-4.18,0.162-3.951,1.252c0.202,0.951,3.38,0.896,3.947,0.972
		s6.619,0.708,7.418,2.59c1.268,2.976-2.574,8.229-6.857,11.415c-4.806,3.573-1.448,3.646,0.765,2.376
		c5.547-3.186,26.724-13.616,54.044-20.767c0,0,4.131-0.997,3.953-1.778c-0.163-0.714-0.13-0.651-4.021-0.368
		C222.374,87.396,177.167,91.404,170.974,91.404"/>
	<path fill="#DCDDDF" d="M171.381,91.488c-0.769,0-4.133,0.156-3.907,1.209c0.192,0.912,3.408,0.845,3.963,0.92
		c0.562,0.074,6.552,0.701,7.292,2.581c1.175,2.98-2.656,8.1-6.881,11.253c-4.552,3.396-1.286,3.455,0.903,2.207
		c5.161-2.944,26.179-13.326,53.164-20.39c0,0,4.114-0.994,3.945-1.727c-0.163-0.704-0.138-0.596-3.98-0.315
		C222.029,87.521,177.496,91.488,171.381,91.488"/>
	<path fill="#DBDCDD" d="M171.79,91.571c-0.761,0-4.087,0.151-3.868,1.168c0.189,0.868,3.435,0.794,3.986,0.868
		c0.554,0.075,6.478,0.69,7.161,2.574c1.083,2.984-2.738,7.968-6.905,11.088c-4.301,3.219-1.125,3.263,1.041,2.034
		c4.768-2.702,25.634-13.031,52.283-20.007c0,0,4.098-0.993,3.937-1.677c-0.164-0.693-0.142-0.541-3.937-0.267
		C221.684,87.647,177.83,91.571,171.79,91.571"/>
	<path fill="#D9DBDC" d="M172.199,91.655c-0.752,0-4.04,0.142-3.828,1.126c0.182,0.826,3.462,0.745,4.005,0.817
		c0.549,0.072,6.407,0.683,7.032,2.562c0.99,2.99-2.817,7.84-6.93,10.924c-4.047,3.043-0.959,3.072,1.181,1.868
		c4.376-2.466,25.089-12.741,51.402-19.63c0,0,4.08-0.991,3.929-1.624c-0.165-0.687-0.149-0.486-3.896-0.212
		C221.339,87.771,178.162,91.655,172.199,91.655"/>
	<path fill="#D8D9DB" d="M172.607,91.738c-0.741,0-3.993,0.139-3.784,1.083c0.172,0.784,3.486,0.697,4.023,0.767
		c0.542,0.072,6.334,0.676,6.901,2.556c0.897,2.992-2.901,7.704-6.952,10.761c-3.795,2.865-0.799,2.876,1.317,1.695
		c3.983-2.226,24.544-12.45,50.521-19.248c0,0,4.06-0.992,3.918-1.576c-0.164-0.676-0.154-0.429-3.851-0.16
		C220.994,87.898,178.493,91.738,172.607,91.738"/>
	<path fill="#D7D8D9" d="M173.016,91.82c-0.734,0-3.947,0.133-3.744,1.045c0.165,0.74,3.513,0.645,4.045,0.715
		c0.532,0.069,6.262,0.665,6.769,2.544c0.805,2.997-2.983,7.574-6.974,10.599c-3.544,2.687-0.638,2.684,1.455,1.524
		c3.593-1.989,23.998-12.156,49.638-18.87c0,0,4.045-0.991,3.915-1.522c-0.165-0.666-0.16-0.376-3.813-0.108
		C220.646,88.023,178.825,91.82,173.016,91.82"/>
	<path fill="#D5D7D8" d="M173.423,91.902c-0.721,0-3.898,0.127-3.7,1.004c0.156,0.699,3.539,0.591,4.063,0.663
		c0.527,0.073,6.189,0.658,6.638,2.536c0.714,3.003-3.064,7.44-6.996,10.436c-3.29,2.505-0.478,2.487,1.593,1.354
		c3.201-1.751,23.453-11.865,48.759-18.49c0,0,4.025-0.986,3.902-1.472c-0.166-0.655-0.166-0.321-3.768-0.06
		C220.303,88.149,179.158,91.902,173.423,91.902"/>
	<path fill="#D4D5D7" d="M173.832,91.985c-0.712,0-3.851,0.122-3.658,0.963c0.147,0.657,3.566,0.541,4.08,0.612
		c0.523,0.071,6.122,0.648,6.511,2.526c0.621,3.005-3.154,7.303-7.019,10.271c-3.043,2.323-0.32,2.293,1.731,1.185
		c2.807-1.515,22.91-11.574,47.878-18.11c0,0,4.007-0.986,3.895-1.421c-0.167-0.648-0.171-0.265-3.726-0.007
		C219.957,88.276,179.492,91.985,173.832,91.985"/>
	<path fill="#D2D4D5" d="M174.239,92.069c-0.703,0-3.804,0.114-3.617,0.919c0.144,0.617,3.591,0.494,4.102,0.563
		c0.514,0.068,6.049,0.639,6.379,2.518c0.529,3.01-3.233,7.171-7.042,10.106c-2.79,2.147-0.16,2.09,1.869,1.014
		c2.413-1.282,22.365-11.28,46.999-17.73c0,0,3.987-0.984,3.886-1.37c-0.173-0.638-0.18-0.218-3.686,0.042
		C219.611,88.395,179.823,92.069,174.239,92.069"/>
	<path fill="#D1D3D4" d="M226.379,88.167c-0.176-0.628-0.185-0.156-3.644,0.097c-3.468,0.264-42.581,3.888-48.088,3.888
		c-0.692,0-3.748,0.106-3.577,0.881c0.143,0.57,3.62,0.444,4.122,0.51c0.51,0.073,5.973,0.631,6.25,2.509
		c0.429,3.014-3.313,7.041-7.066,9.943c-2.534,1.972,0,1.894,2.009,0.843c2.021-1.042,21.818-10.989,46.114-17.351
		C222.5,89.486,226.47,88.503,226.379,88.167"/>
</g>
<g>
	<g>
		<defs>
			<path id="SVGID_1_" d="M234.966,37.796c0,0-2.071,0.392-3.433,0.664c0,0,4.792-0.805,6.318,0.986
				c1.598,1.871,3.958,6.567-15.057,23.252c-6.298,5.517-13.332,10.439-18.69,13.947l12.476-2.017
				c5.806-5.524,21.139-18.015,34.757-25.16c22.124-11.601,39.714-17.982,43.191-19.128v-0.2
				C290.388,30.459,259.979,32.891,234.966,37.796"/>
		</defs>
		<clipPath id="SVGID_2_">
			<use xlink:href="#SVGID_1_"  overflow="visible"/>
		</clipPath>
		
			<linearGradient id="SVGID_3_" gradientUnits="userSpaceOnUse" x1="186.7061" y1="55.5664" x2="188.5661" y2="55.5664" gradientTransform="matrix(3.6591 17.2146 54.1467 -11.5092 -3446.4458 -2539.2966)">
			<stop  offset="0" style="stop-color:#ED1C24"/>
			<stop  offset="0.197" style="stop-color:#E91C24"/>
			<stop  offset="0.3514" style="stop-color:#E11B22"/>
			<stop  offset="0.4913" style="stop-color:#D41920"/>
			<stop  offset="0.6218" style="stop-color:#C3151C"/>
			<stop  offset="0.7247" style="stop-color:#B01116"/>
			<stop  offset="1" style="stop-color:#B01116"/>
		</linearGradient>
		<polygon clip-path="url(#SVGID_2_)" fill="url(#SVGID_3_)" points="290.619,11.75 303.984,74.635 208.013,95.034 194.645,32.149 
					"/>
	</g>
	<linearGradient id="SVGID_4_" gradientUnits="userSpaceOnUse" x1="212.2617" y1="41.4219" x2="238.4883" y2="41.4219">
		<stop  offset="0.1065" style="stop-color:#ED1C24"/>
		<stop  offset="0.1906" style="stop-color:#E61B23"/>
		<stop  offset="0.3052" style="stop-color:#D91921"/>
		<stop  offset="0.437" style="stop-color:#C3151C"/>
		<stop  offset="0.5019" style="stop-color:#B61318"/>
		<stop  offset="0.7021" style="stop-color:#8A0304"/>
		<stop  offset="0.7795" style="stop-color:#790000"/>
	</linearGradient>
	<path fill="url(#SVGID_4_)" d="M231.533,38.46l-19.21,4.313l-0.027,0.008l-0.035,0.032l0.035,0.035l0.034,0.005l11.38,1.711
		c7.108-3.302,11.748-4.309,14.777-4.178c-0.003-0.005-0.005-0.011-0.009-0.017c-0.002-0.001-0.004-0.005-0.004-0.009
		c-0.005-0.011-0.009-0.018-0.014-0.029c-0.002,0-0.002,0-0.002,0c-0.005-0.013-0.009-0.02-0.015-0.03c0,0-0.002-0.004-0.003-0.008
		c-0.176-0.332-0.383-0.604-0.58-0.835c-0.004-0.004-0.007-0.01-0.011-0.012c-0.304-0.357-0.738-0.611-1.239-0.788
		c-0.819-0.292-1.814-0.378-2.71-0.378C232.61,38.28,231.533,38.46,231.533,38.46"/>
</g>
</svg>
