<?xml version="1.0" encoding="UTF-8"?>
<svg width="42px" height="49px" viewBox="0 0 42 49" version="1.1" xmlns="http://www.w3.org/2000/svg" xmlns:xlink="http://www.w3.org/1999/xlink">
    <!-- Generator: Sketch 43.1 (39012) - http://www.bohemiancoding.com/sketch -->
    <title>Android_Pay_logo</title>
    <desc>Created with Sketch.</desc>
    <defs></defs>
    <g id="menu-desktop" stroke="none" stroke-width="1" fill="none" fill-rule="evenodd">
        <g id="menu7_services" transform="translate(-1253.000000, -640.000000)" fill-rule="nonzero">
            <g id="Group-4" transform="translate(1016.000000, 640.000000)">
                <g id="Group-11" transform="translate(237.000000, 0.000000)">
                    <g id="Android_Pay_logo">
                        <path d="M12.1995951,9.05251928 L12.1128647,9.05251928 L12.1128647,19.9175449 C12.1128647,20.8238837 12.89766,21.5656666 13.8570675,21.5656666 L15.3608555,21.5656666 L15.3608555,25.3525553 C15.3608555,26.2622548 16.141762,27 17.1047769,27 C18.0676126,27 18.8482889,26.2622548 18.8486471,25.3525553 L18.8486471,21.5656666 L21.198479,21.5656666 L21.198479,25.3525553 C21.198479,26.2622548 21.9798716,27 22.9428353,27 C23.905799,27 24.6861171,26.2622548 24.6868078,25.3525553 L24.6868078,21.5656666 L26.1522196,21.5656666 C27.1116271,21.5656666 27.8962177,20.8238837 27.8962177,19.9175449 L27.8962177,9.05251928 L12.1995951,9.05251928 L12.1995951,9.05251928 Z M15.6737247,5.13836208 C15.6737247,5.52521105 16.0054494,5.83885368 16.414771,5.83885368 C16.8241182,5.83885368 17.15615,5.52521105 17.15615,5.13836208 C17.15615,4.75151311 16.8241182,4.43786805 16.414771,4.43786805 C16.0054494,4.43786805 15.6737247,4.75151311 15.6737247,5.13836208 Z M22.8532906,5.13836208 C22.8532906,5.52521105 23.1851688,5.83885368 23.594516,5.83885368 C24.0038632,5.83885368 24.3357414,5.52521105 24.3357414,5.13836208 C24.3357414,4.75151311 24.0038632,4.43786805 23.594516,4.43786805 C23.1851688,4.43786805 22.8532906,4.75151311 22.8532906,5.13836208 Z M12.1325901,8.47594024 C12.12952,8.40071987 12.1274733,8.32549951 12.1274733,8.24994307 C12.1274733,7.74455391 12.1948109,7.25259807 12.3218108,6.77978159 C12.8113389,4.95736028 14.1916065,3.41903118 16.057283,2.50597574 L14.8468946,0.395767806 C14.7722399,0.265474656 14.8233571,0.102944897 14.9610001,0.0324247482 C15.0985407,-0.0380954009 15.2706712,0.0102534667 15.3452236,0.140217795 L16.569888,2.27561201 C17.6116255,1.84846547 18.7821026,1.60903497 20.0190219,1.60903497 C21.2467052,1.60903497 22.4086628,1.84510714 23.4444647,2.26620916 L24.6639867,0.140217795 C24.7385902,0.0102607201 24.9105672,-0.0380954009 25.0480823,0.0324247482 C25.1855974,0.102944897 25.2367658,0.265474656 25.1621622,0.395767806 L23.9582722,2.49455644 C25.9154634,3.44522569 27.3421407,5.08261714 27.7738741,7.01518403 C27.822919,7.23379238 27.8588136,7.45609756 27.8815324,7.68142257 L27.8815324,8.47594024 L12.1324878,8.47594024 L12.1325901,8.47594024 Z M32,10.4122015 C32,9.502502 31.2189656,8.76473508 30.2560019,8.76473508 C29.2930382,8.76473508 28.512362,9.502502 28.5120038,10.4122015 L28.5120038,17.335183 C28.5120038,18.245221 29.2930382,18.9829903 30.2560019,18.9829903 C31.2189656,18.9829903 31.9996418,18.245221 32,17.335183 L32,10.4122015 Z M11.4880986,10.4122015 L11.4880986,17.335183 C11.4880986,18.245221 10.7069362,18.9829903 9.74389577,18.9829903 C8.78100885,18.9829903 8.00040935,18.245221 8,17.335183 L8,10.4122015 C8,9.502502 8.78100885,8.76473508 9.74389577,8.76473508 C10.7069362,8.76473508 11.4876892,9.502502 11.4880986,10.4122015 L11.4880986,10.4122015 Z" id="path3352" fill="#6EC848"></path>
                        <path d="M42,32.2431087 L39.7665858,32.2431087 L34.9160972,43.4953812 L35.9072871,43.4953812 L31.0705586,32.256142 L28.7708569,32.256142 L34.2553039,44.5835175 L33.8191418,45.5435583 C33.3304269,46.6061197 32.4051691,47.0667868 31.5197701,47.0667868 L30.7927147,47.0667868 L30.7927147,49 L31.4933414,49 C33.4622911,49 35.0218881,47.9760221 35.8544043,46.0302674 L42,32.2431087 L42,32.2431087 L42,32.2431087 Z M27.58149,45.0571442 L27.58149,32.256142 L25.5991356,32.256142 L25.5991356,33.7156056 C24.4887754,32.6400108 22.9559879,32 21.2112886,32 C17.4316821,32 14.4581632,34.9699539 14.4581632,38.6437081 C14.4581632,42.3306678 17.4316821,45.3132862 21.2112886,45.3132862 C22.9559879,45.3132862 24.4887754,44.660365 25.5991356,43.5978528 L25.5991356,45.0571442 L27.58149,45.0571442 L27.58149,45.0571442 L27.58149,45.0571442 Z M21.3569129,43.4444282 C18.6474777,43.4444282 16.4537192,41.293755 16.4537192,38.6437081 C16.4537192,36.0070389 18.6474777,33.8562181 21.3569129,33.8562181 C23.0483741,33.8562181 24.6474491,34.6244228 25.466916,35.9427083 C25.506394,36.0195558 25.5991356,36.1476514 25.5991356,36.3652344 L25.5991356,40.9095174 C25.5856801,41.1400599 25.506394,41.2810905 25.4538667,41.3450031 C24.5681123,42.6250984 23.0483741,43.4444282 21.3569129,43.4444282 L21.3569129,43.4444282 Z M1.9824331,48.8975284 L1.9824331,43.5978528 C3.09262062,44.6733 4.62562647,45.3259753 6.37007194,45.3259753 C10.1366291,45.3259753 13.1233242,42.3433323 13.1233242,38.6696027 C13.1233242,34.9826675 10.1366291,32 6.37007194,32 C4.62562647,32 3.09262062,32.6529457 1.9824331,33.7156056 L1.9824331,32.256142 L0,32.256142 L0,48.8975284 L1.9824331,48.8975284 L1.9824331,48.8975284 Z M6.22477764,43.4570927 C4.5330626,43.4570927 2.96039342,42.6763218 2.11452067,41.3706025 C2.06176993,41.293755 1.9824331,41.165684 1.9824331,40.9480764 L1.9824331,36.3525699 C1.99566014,36.1346918 2.07485226,35.9939563 2.12774263,35.9301913 C3.0132838,34.6500469 4.5330626,33.8688826 6.22477764,33.8688826 C8.92070651,33.8688826 11.1145919,36.0195558 11.1145919,38.6696027 C11.1145919,41.3062965 8.92070651,43.4570927 6.22477764,43.4570927 L6.22477764,43.4570927 L6.22477764,43.4570927 Z" id="path3354" fill="#7B7979"></path>
                    </g>
                </g>
            </g>
        </g>
    </g>
</svg>