<?xml version="1.0" encoding="UTF-8"?>
<svg width="86px" height="34px" viewBox="0 0 86 34" version="1.1" xmlns="http://www.w3.org/2000/svg" xmlns:xlink="http://www.w3.org/1999/xlink">
    <!-- Generator: Sketch 43.1 (39012) - http://www.bohemiancoding.com/sketch -->
    <title>Apple_Pay_logo</title>
    <desc>Created with Sketch.</desc>
    <defs></defs>
    <g id="menu-desktop" stroke="none" stroke-width="1" fill="none" fill-rule="evenodd">
        <g id="menu7_services" transform="translate(-1016.000000, -656.000000)" fill="#000000">
            <g id="Group-4" transform="translate(1016.000000, 640.000000)">
                <g id="Group-9" transform="translate(0.000000, 16.000000)">
                    <g id="Apple_Pay_logo">
                        <path d="M12.6701754,2.4469914 C14.5263158,0 17.1087719,0 17.1087719,0 C17.1087719,0 17.4719298,2.28653295 15.6561404,4.49283668 C13.6789474,6.81948424 11.4596491,6.41833811 11.4596491,6.41833811 C11.4596491,6.41833811 11.0157895,4.61318052 12.6701754,2.4469914 Z M6.77894737,6.81948424 C3.51052632,6.81948424 0,9.747851 0,15.2836676 C0,20.9398281 4.11578947,28 7.4245614,28 C8.55438596,28 10.3298246,26.8366762 12.1052632,26.8366762 C13.8403509,26.8366762 15.1315789,27.9197708 16.745614,27.9197708 C20.3368421,27.9197708 23,20.4985673 23,20.4985673 C23,20.4985673 19.2070175,19.0544413 19.2070175,14.8022923 C19.2070175,11.0315186 22.2736842,9.50716332 22.2736842,9.50716332 C22.2736842,9.50716332 20.7,6.6991404 16.745614,6.6991404 C14.445614,6.6991404 12.6701754,7.98280802 11.7421053,7.98280802 C10.5719298,8.02292264 8.91754386,6.81948424 6.77894737,6.81948424 Z" id="Shape"></path>
                        <path d="M39.7647059,2 C44.5882353,2 48,5.34119497 48,10.2154088 C48,15.0896226 44.5490196,18.4701258 39.6470588,18.4701258 L33.8823529,18.4701258 L33.8823529,27 L30,27 L30,2 L39.7647059,2 Z M33.8823529,15.2075472 L38.745098,15.2075472 C42.0784314,15.2075472 44.0392157,13.3993711 44.0392157,10.254717 C44.0392157,7.11006289 42.1176471,5.26257862 38.745098,5.26257862 L33.8823529,5.26257862 L33.8823529,15.2075472 Z" id="Shape" fill-rule="nonzero"></path>
                        <path d="M49,22.2327519 C49,18.7972601 51.5552826,16.8341219 56.1941032,16.5069322 L61.2653563,16.2206412 L61.2653563,14.7073888 C61.2653563,12.4579596 59.8108108,11.2309983 57.3341523,11.2309983 C55.2899263,11.2309983 53.7960688,12.3352635 53.4815725,14.0121107 L49.982801,14.0121107 C50.1007371,10.5357202 53.2457002,8 57.4520885,8 C62.0515971,8 65,10.5357202 65,14.3801991 L65,27.7949768 L61.4226044,27.7949768 L61.4226044,24.5230798 L61.3439803,24.5230798 C60.3218673,26.6498128 57.963145,27.9994703 55.4078624,27.9994703 C51.5945946,28.0403691 49,25.7091425 49,22.2327519 Z M61.2653563,20.4741073 L61.2653563,18.9608549 L56.7051597,19.2880446 C54.1498771,19.4516395 52.8132678,20.4332086 52.8132678,22.1918532 C52.8132678,23.8687004 54.2285012,24.9320669 56.3906634,24.9320669 C59.1425061,24.8911682 61.2653563,23.0507262 61.2653563,20.4741073 Z" id="Shape" fill-rule="nonzero"></path>
                        <path d="M69.9955654,33.9095537 L69.9955654,30.8051832 C70.2749446,30.8847824 70.8736142,30.8847824 71.1929047,30.8847824 C72.9889135,30.8847824 74.0266075,30.1285896 74.6651885,28.0988089 L74.9445676,27.1038184 L68,8 L72.1108647,8 L77.0199557,23.5616521 L77.0997783,23.5616521 L82.0088692,8 L86,8 L78.8558758,27.9396104 C77.2195122,32.5165669 75.4235033,33.9891529 71.5121951,33.9891529 C71.232816,34.0289525 70.3148559,33.9493533 69.9955654,33.9095537 Z" id="Shape" fill-rule="nonzero"></path>
                    </g>
                </g>
            </g>
        </g>
    </g>
</svg>