<?xml version="1.0" encoding="UTF-8"?>
<svg width="24px" height="24px" viewBox="0 0 24 24" version="1.1" xmlns="http://www.w3.org/2000/svg" xmlns:xlink="http://www.w3.org/1999/xlink">
    <!-- Generator: Sketch 43.1 (39012) - http://www.bohemiancoding.com/sketch -->
    <title>icons24/calendar</title>
    <desc>Created with Sketch.</desc>
    <defs></defs>
    <g id="Symbols" stroke="none" stroke-width="1" fill="none" fill-rule="evenodd">
        <g id="icons24/calendar" fill="#221F20">
            <g id="Page-1" transform="translate(3.000000, 2.000000)">
                <path d="M2,6 L16,6 L16,4 L2,4 L2,6 Z M2,18 L16,18 L16,8 L2,8 L2,18 Z M14,2 L14,1 L14,0 L12,0 L12,0.999 L12,1 L12,2 L6,2 L6,1 L6,0 L4,0 L4,1 L4,2 L0,2 L0,20 L18,20 L18,8 L18,6 L18,2 L14,2 Z" id="Fill-1"></path>
                <polygon id="Fill-3" points="4 12 6 12 6 10 4 10"></polygon>
                <polygon id="Fill-4" points="8 12 10 12 10 10 8 10"></polygon>
                <polygon id="Fill-5" points="12 12 14 12 14 10 12 10"></polygon>
                <polygon id="Fill-6" points="4 16 6 16 6 14 4 14"></polygon>
                <polygon id="Fill-7" points="8 16 10 16 10 14 8 14"></polygon>
                <polygon id="Fill-8" points="12 16 14 16 14 14 12 14"></polygon>
            </g>
        </g>
    </g>
</svg>