<?xml version="1.0" encoding="UTF-8"?>
<svg width="56px" height="71px" viewBox="0 0 56 71" version="1.1" xmlns="http://www.w3.org/2000/svg" xmlns:xlink="http://www.w3.org/1999/xlink">
    <!-- Generator: Sketch 44.1 (41455) - http://www.bohemiancoding.com/sketch -->
    <title>Group 12</title>
    <desc>Created with Sketch.</desc>
    <defs>
        <polygon id="path-1" points="0 35.5066 0 71.013 56 71.013 56 35.5066 56 0.0002 0 0.0002 0 35.5066"></polygon>
        <path d="M56,28.0002 C56,12.5362 43.464,0.0002 28,0.0002 C12.536,0.0002 0,12.5362 0,28.0002 C0,36.2122 3.535,43.5982 9.167,48.7192 L28.001,71.0132 L46.846,48.7072 C52.47,43.5862 56,36.2052 56,28.0002" id="path-3"></path>
    </defs>
    <g id="Page-1" stroke="none" stroke-width="1" fill="none" fill-rule="evenodd">
        <g id="Group-12">
            <g id="Page-1">
                <mask id="mask-2" fill="white">
                    <use xlink:href="#path-1"></use>
                </mask>
                <g id="Clip-2"></g>
                <mask id="mask-4" fill="white">
                    <use xlink:href="#path-3"></use>
                </mask>
                <use id="Mask" fill="#FFED00" xlink:href="#path-3"></use>
                <path d="M28.5,32.7026125 L17.5635142,43.6374558 L13.2242907,39.3037076 L24.1618716,28.3650317 L21.8802887,26.0818062 L21.8802887,21.5739416 L20.2957193,19.9877295 L20.2957193,23.9190386 L18.9164759,25.2988296 L13.3715779,19.752289 L12,21.1233194 C12.0098556,20.0890237 12.2162768,17.0956439 14.7552016,14.5999744 C17.4950722,11.9641357 20.4539572,13.1517415 21.4658039,14.1646832 L27.0079642,19.7084861 L25.594226,21.1205817 L28.5,24.0274508 L31.4052265,21.1205817 L29.9920358,19.7084861 L35.533101,14.1646832 C36.5449477,13.1517415 39.5038328,11.9641357 42.2437033,14.5999744 C44.7831757,17.0956439 44.9895968,20.0890237 45,21.1233194 L43.6284221,19.752289 L38.0829766,25.2988296 L36.7042807,23.9190386 L36.7042807,19.9877295 L35.1186162,21.5739416 L35.1186162,26.0818062 L32.8370333,28.3650317 L43.7751618,39.3037076 L39.4364858,43.6374558 L28.5,32.7026125 Z" id="Fill-7" fill="#000000" fill-rule="nonzero" mask="url(#mask-4)"></path>
                <rect id="Rectangle-5" fill="#000000" mask="url(#mask-4)" x="18" y="62" width="20" height="9"></rect>
            </g>
        </g>
    </g>
</svg>