<?xml version="1.0" encoding="UTF-8"?>
<svg width="76px" height="35px" viewBox="0 0 76 35" version="1.1" xmlns="http://www.w3.org/2000/svg" xmlns:xlink="http://www.w3.org/1999/xlink">
    <!-- Generator: Sketch 43.1 (39012) - http://www.bohemiancoding.com/sketch -->
    <title>samsung-pay</title>
    <desc>Created with Sketch.</desc>
    <defs></defs>
    <g id="menu-desktop" stroke="none" stroke-width="1" fill="none" fill-rule="evenodd">
        <g id="menu7_services" transform="translate(-1136.000000, -656.000000)" fill-rule="nonzero" fill="#000000">
            <g id="Group-4" transform="translate(1016.000000, 640.000000)">
                <g id="Group-10" transform="translate(120.000000, 16.000000)">
                    <g id="samsung-pay">
                        <g id="Group" transform="translate(17.000000, 17.000000)">
                            <g id="Shape">
                                <path d="M0.0247575758,17.7621429 L0.0247575758,0.410142857 L2.85493939,0.410142857 L2.85493939,1.68428571 C3.24584848,1.06457143 4.00812121,0.621 4.60621212,0.424285714 C5.20430303,0.227571429 5.82715152,0.127285714 6.45651515,0.127285714 C8.02406061,0.127285714 9.69845455,0.649285714 11.0562121,2.043 C12.3123333,3.33128571 12.9755758,4.89857143 12.9755758,6.75128571 C12.9755758,7.59985714 12.8087879,8.43814286 12.4791212,9.243 C12.1624848,10.0504286 11.7064242,10.7588571 11.1213636,11.3515714 C10.5037273,11.9892857 9.80009091,12.4752857 9.02869697,12.7992857 C8.256,13.1232857 7.53412121,13.2878571 6.58812121,13.2878571 C5.90272727,13.2878571 5.23557576,13.1798571 4.60621212,12.969 C3.98987879,12.7697143 3.12206061,12.2798571 2.81063636,11.7475714 L2.81063636,17.7595714 L0.0247575758,17.7595714 L0.0247575758,17.7621429 Z M6.36790909,2.58814286 C5.33460606,2.58814286 4.43551515,2.907 3.69669697,3.65657143 C2.94093939,4.43571429 2.64906061,5.54528571 2.64906061,6.64971429 C2.64906061,7.83 2.93312121,8.97685714 3.67193939,9.75471429 C4.41336364,10.5351429 5.32678788,10.809 6.39136364,10.809 C7.47027273,10.809 8.34721212,10.3744286 9.01175758,9.70971429 C9.77793939,8.94342857 10.1401818,7.89942857 10.1401818,6.77828571 C10.1401818,5.55171429 9.77663636,4.464 9.03390909,3.68742857 C8.39542424,3.01885714 7.47548485,2.58814286 6.36790909,2.58814286 Z"></path>
                                <polygon points="32.3946364 17.7621429 34.787 12.2888571 29.3025455 0.410142857 32.2877879 0.410142857 36.1864545 9.32657143 39.7802121 0.410142857 42.7810909 0.410142857 35.3277576 17.7621429"></polygon>
                            </g>
                            <path d="M24.8083939,13.0577143 L24.8083939,11.7488571 C24.4969697,12.2811429 23.6304545,12.771 23.0128182,12.9702857 C22.3834545,13.1811429 21.716303,13.2891429 21.0309091,13.2891429 C20.0849091,13.2891429 19.3643333,13.1245714 18.5903333,12.8005714 C17.8189394,12.4765714 17.115303,11.9892857 16.4976667,11.3528571 C15.9126061,10.7614286 15.4552424,10.053 15.1399091,9.24428571 C14.8102424,8.43942857 14.6434545,7.60114286 14.6434545,6.75257143 C14.6434545,4.89985714 15.306697,3.33257143 16.5628182,2.04428571 C17.9218788,0.651857143 19.5962727,0.128571429 21.1625152,0.128571429 C21.7918788,0.128571429 22.4147273,0.228857143 23.0128182,0.425571429 C23.6109091,0.622285714 24.3731818,1.06585714 24.7640909,1.68557143 L24.7640909,0.411428571 L27.5942727,0.411428571 L27.5942727,13.059 L24.8083939,13.059 L24.8083939,13.0577143 Z M18.5864242,3.68614286 C17.843697,4.46271429 17.4801515,5.55171429 17.4801515,6.777 C17.4801515,7.89814286 17.843697,8.94342857 18.6085758,9.70842857 C19.2731212,10.3731429 20.1500606,10.8077143 21.2289697,10.8077143 C22.2935455,10.8077143 23.2082727,10.5338571 23.9483939,9.75342857 C24.6872121,8.97557143 24.9712727,7.82871429 24.9712727,6.64842857 C24.9712727,5.54271429 24.6793939,4.43442857 23.9236364,3.65528571 C23.1835152,2.90571429 22.2857273,2.58685714 21.2524242,2.58685714 C20.1435455,2.58814286 19.2249091,3.01885714 18.5864242,3.68614286 Z" id="Shape"></path>
                        </g>
                        <g id="Group">
                            <polygon id="Shape" points="62.713 9.0857 62.5661 0.5876 65.2506 0.5876 65.2506 11.3074 61.3935 11.3074 58.7246 2.5077 58.657 2.5077 58.8078 11.3074 56.148 11.3074 56.148 0.5876 60.1624 0.5876 62.6571 9.0857"></polygon>
                            <polygon id="Shape" points="14.0007 1.5847 12.5174 11.4101 9.5963 11.4101 11.5996 0.5876 16.4226 0.5876 18.4233 11.4101 15.5074 11.4101 14.0644 1.5847"></polygon>
                            <polygon id="Shape" points="26.6224 8.8647 27.9614 0.5876 32.3736 0.5876 32.6167 11.4101 29.9049 11.4101 29.8321 1.6757 29.7762 1.6757 27.9692 11.4101 25.2262 11.4101 23.4101 1.6757 23.3503 1.6757 23.2827 11.4101 20.5774 11.4101 20.8205 0.5876 25.2379 0.5876 26.5652 8.8647"></polygon>
                            <path d="M49.3243,9.7838 C50.0809,9.7838 50.3123,9.2703 50.3669,9.0064 C50.3877,8.8894 50.3903,8.7334 50.3903,8.593 L50.3903,0.5876 L53.1372,0.5876 L53.1372,8.3447 C53.1372,8.5475 53.1151,8.9531 53.1034,9.0623 C52.9201,11.0812 51.3159,11.7312 49.3243,11.7312 C47.3314,11.7312 45.7363,11.0812 45.5517,9.0623 C45.5387,8.9544 45.5231,8.5488 45.5257,8.3447 L45.5257,0.5876 L48.2661,0.5876 L48.2661,8.593 C48.257,8.7334 48.2726,8.8894 48.2869,9.0064 C48.3389,9.2703 48.5716,9.7838 49.3243,9.7838" id="Shape"></path>
                            <g id="Shape">
                                <path d="M5.0372,8.3525 C5.1425,8.6177 5.1087,8.9531 5.0606,9.1559 C4.9709,9.5147 4.7291,9.8865 4.0037,9.8865 C3.329,9.8865 2.9208,9.4926 2.9208,8.9037 L2.913,7.8533 L0.0127,7.8533 L0.0127,8.6879 C0.0127,11.1059 1.9094,11.83 3.9413,11.83 C5.9069,11.83 7.5163,11.167 7.7711,9.3613 C7.9063,8.4227 7.8088,7.8104 7.7659,7.5829 C7.307,5.3105 3.1964,4.6449 2.8896,3.3748 C2.8363,3.1499 2.848,2.9289 2.8779,2.808 C2.9559,2.4557 3.1925,2.0761 3.8672,2.0761 C4.5068,2.0761 4.876,2.4739 4.876,3.055 L4.876,3.731 L7.5761,3.731 L7.5761,2.9705 C7.5761,0.611 5.4571,0.2418 3.9205,0.2418 C1.9991,0.2418 0.4287,0.8827 0.1375,2.6494 C0.0647,3.1252 0.0543,3.5568 0.1622,4.1015 C0.6315,6.3193 4.4847,6.9563 5.0372,8.3525"></path>
                                <path d="M40.236,8.3395 C40.3465,8.5969 40.3023,8.9284 40.2594,9.1312 C40.1736,9.4874 39.9253,9.8449 39.2142,9.8449 C38.5421,9.8449 38.1378,9.464 38.1378,8.8777 L38.1378,7.8351 L35.2596,7.8351 L35.2596,8.6658 C35.2596,11.0604 37.1407,11.7754 39.1583,11.7754 C41.0914,11.7754 42.6878,11.1163 42.9452,9.3262 C43.0739,8.4032 42.979,7.7948 42.9296,7.5621 C42.4785,5.3222 38.4108,4.6579 38.1144,3.3956 C38.0598,3.1837 38.0754,2.9588 38.0975,2.8392 C38.1729,2.4973 38.4069,2.119 39.0751,2.119 C39.7108,2.119 40.0748,2.5064 40.0748,3.0836 L40.0748,3.7505 L42.7437,3.7505 L42.7437,3.003 C42.7437,0.6695 40.6481,0.3029 39.1349,0.3029 C37.2291,0.3029 35.6678,0.9256 35.3883,2.6832 C35.3038,3.1525 35.2934,3.5802 35.413,4.1262 C35.8771,6.3193 39.6848,6.9472 40.236,8.3395"></path>
                                <path d="M71.904,9.6746 C72.684,9.6746 72.9583,9.1871 73.0077,8.8881 C73.0272,8.7698 73.0363,8.6177 73.035,8.4786 L73.035,6.9147 L71.9274,6.9147 L71.9274,5.3248 L75.7585,5.3248 L75.7585,8.2342 C75.7585,8.437 75.7507,8.5865 75.7247,8.9466 C75.5427,10.9096 73.8319,11.6194 71.9092,11.6194 C69.9943,11.6194 68.2926,10.9109 68.1132,8.9466 C68.0755,8.5865 68.0742,8.437 68.0742,8.2342 L68.0742,3.6803 C68.0742,3.484 68.0963,3.1421 68.1223,2.9692 C68.3576,0.936 69.9956,0.2964 71.9105,0.2964 C73.8319,0.2964 75.5206,0.9295 75.713,2.9692 C75.752,3.3046 75.7364,3.6803 75.7364,3.6803 L75.7403,4.0339 L73.0116,4.0339 L73.0116,3.4281 C73.0116,3.4281 73.0116,3.1694 72.9778,3.016 C72.9284,2.7807 72.7204,2.2321 71.8936,2.2321 C71.1149,2.2321 70.8809,2.7521 70.8185,3.016 C70.7834,3.1564 70.7769,3.3527 70.7769,3.5256 L70.7769,8.4773 C70.7769,8.6164 70.7834,8.7698 70.7951,8.8868 C70.8471,9.1871 71.1188,9.6746 71.904,9.6746"></path>
                            </g>
                        </g>
                    </g>
                </g>
            </g>
        </g>
    </g>
</svg>